<?xml version="1.0" standalone="no"?>
<!DOCTYPE svg PUBLIC "-//W3C//DTD SVG 1.1//EN" "http://www.w3.org/Graphics/SVG/1.1/DTD/svg11.dtd" >
<svg xmlns="http://www.w3.org/2000/svg" xmlns:xlink="http://www.w3.org/1999/xlink" version="1.1">
<metadata></metadata>
<defs>
<font id="vtcgoblinhandregular" horiz-adv-x="1083" >
<font-face units-per-em="2048" ascent="1638" descent="-410" />
<missing-glyph horiz-adv-x="651" />
<glyph horiz-adv-x="0" />
<glyph horiz-adv-x="682" />
<glyph unicode=" "  horiz-adv-x="651" />
<glyph unicode="&#x09;" horiz-adv-x="651" />
<glyph unicode="&#xa0;" horiz-adv-x="651" />
<glyph unicode="!" horiz-adv-x="487" d="M72 1698q10 2 36.5 9t59.5 17q55 16 114.5 35t106.5 19v-52q-4 -23 -5 -29.5t-9 -29.5l2 4q-2 -12 -2 -29v-45v-75q0 -20 -2 -29v4l-29 -1005v-35v-13q0 -14 -3 -25t-19 -20l2 2q-35 -31 -66 -50t-45 -19q-27 0 -27 37q0 4 1 10t1 12q2 10 2 19v18v12q0 8 -2 19l-61 1036 q-4 35 -9 65.5t-9 47.5q-2 10 -5.5 14t-21.5 23zM127 125q0 20 16.5 33.5t36.5 27.5q4 2 13 11q6 6 12 13t12 15q12 16 22.5 27.5t22.5 11.5t17.5 -9t15.5 -19q12 -16 29 -29q18 -16 44.5 -42t26.5 -44q0 -16 -11 -27.5t-26 -21.5q-10 -6 -18 -14.5t-14 -14.5l-27 -29 q-10 -12 -17.5 -19t-17.5 -7q-12 0 -33.5 23.5t-42.5 45.5l5 -2q-2 2 -10.5 7.5t-18.5 13.5q-16 10 -26.5 21.5t-10.5 27.5z" />
<glyph unicode="&#x22;" horiz-adv-x="575" d="M92 1716l199 111q0 -2 1 -21.5t1 -21.5q0 -31 -11.5 -94.5t-25.5 -130.5q-10 -47 -18.5 -90.5t-12.5 -75.5q-10 -68 -37 -68q-20 0 -24 27l2 -2q-8 23 -20.5 75t-24.5 108t-20.5 108.5t-8.5 74.5zM291 1688q0 8 1 15t5 19q2 2 13.5 9.5t26.5 16.5t33.5 19.5t35.5 18.5 q14 10 20 12t29 12l6 2q16 0 18 -7t2 -19q0 -35 -21.5 -138.5t-47.5 -230.5q-4 -10 -5 -21.5t-6 -21.5q0 -23 -12 -42t-35 -19q-8 16 -9 19l-3 9q-10 45 -18.5 95.5t-16.5 98.5t-12 88t-4 65z" />
<glyph unicode="#" horiz-adv-x="1320" d="M66 305l40 209q55 12 105.5 19.5t97.5 11.5q29 4 54.5 7t52.5 7l12 207q-25 -2 -49.5 -4t-48.5 -4q-41 -4 -93.5 -8.5t-105.5 -8.5v213q25 2 63.5 4.5t69.5 4.5q51 4 98.5 5t86.5 5l30 405l119 -6l-29 -389q10 0 21.5 1t23.5 1h121q61 0 123 4l31 391l115 -8l-25 -383 h315l-45 -186q-78 0 -151.5 -1t-136.5 -3l-19 -191h31q14 0 31 2q23 0 46 1t50 1q25 0 62.5 -2t72.5 -4l-21 -190q-68 0 -144.5 -4t-137.5 -9l-35 -383h-117l31 373q-145 -6 -303 -24q4 -6 4 -41q0 -33 -2 -77t-6 -90t-6 -77q-2 -23 -3 -37t-3 -27h-121l26 332 q-23 -4 -46 -6t-46 -6q-47 -6 -112.5 -15.5t-126.5 -19.5zM530 578q37 4 77 5t79 5q35 4 71 6t66 6l19 193q-29 -4 -62 -5q-31 0 -59 -2q-45 -4 -88 -4t-84 -4z" />
<glyph unicode="$" horiz-adv-x="927" d="M166 1077q0 63 17.5 128t52 122t88 102.5t127.5 69.5v90h96v-71q31 6 67 6q20 0 48 -3t63 -8l68 -208l-43 -25q-66 41 -114 62.5t-89 31.5v-459q39 -20 62.5 -34.5t35.5 -18.5q37 -20 75 -50t54 -89h-2q23 -70 32 -140.5t9 -142.5q0 -94 -27.5 -168.5t-68.5 -130 t-88 -90.5t-84 -47l2 -135h-96v121q-63 4 -135 17t-119 36l-17 201h53q35 -39 94.5 -71t123.5 -46v500q-16 12 -38 23.5t-40 23.5q-29 16 -52.5 30.5t-39.5 34.5q-66 68 -90.5 160t-24.5 178zM317 1229q0 -78 40 -136.5t94 -105.5v389h-7q-6 -2 -13 -3t-17 -1t-25.5 -9 t-32 -27.5t-28 -45t-11.5 -61.5zM545 121l1 1t3 1q27 2 47 19.5t34.5 41t21.5 51t7 50.5q0 94 -32.5 157.5t-79.5 110.5z" />
<glyph unicode="%" horiz-adv-x="1331" d="M94 778q0 55 39 122t94.5 126t118 99t111.5 40q66 0 111.5 -31.5t86.5 -72.5q2 0 2 2q12 16 25.5 36.5t38.5 30.5q16 10 32.5 12.5t32.5 2.5q10 0 18.5 -1t16.5 -1h21l147 16q29 2 47.5 5t38 7.5t49 12.5t80.5 22l84 -90q-92 -74 -166.5 -141.5t-142.5 -137 t-134.5 -145.5t-146.5 -164h2q-86 -100 -147 -179t-115 -150q-39 -51 -83 -108.5t-85 -110.5l-75 45q92 137 190 272t215 283q16 23 34.5 44t35.5 42q78 98 149.5 185t141.5 159q-10 0 -14.5 -2t-10.5 -4q-35 -8 -96.5 -18.5t-120.5 -14.5q18 -41 18 -84q0 -74 -41 -141.5 t-98 -119t-115.5 -82t-95.5 -30.5q-43 0 -93 24.5t-95 62.5t-75 85t-30 92zM266 920q0 -29 19.5 -69t54.5 -77t80 -62.5t98 -25.5q29 0 41 14t12 37q0 18 -18 60.5t-52 85.5t-83 74.5t-109 31.5q-33 0 -38 -15.5t-5 -43.5v-10zM614 260q0 33 31 93.5t82 119.5t117.5 103.5 t136.5 44.5q61 0 114.5 -28t92.5 -69t61.5 -90t22.5 -94q0 -41 -34 -101.5t-89 -116.5t-124 -96t-136 -40q-43 0 -91 20.5t-89 57t-68 87t-27 109.5zM788 385q0 -31 19.5 -74t52.5 -83t78 -67.5t98 -27.5q29 0 44.5 23.5t15.5 54.5q0 20 -16.5 62t-49.5 84t-81 74t-109 32 q-23 0 -37.5 -30t-14.5 -48z" />
<glyph unicode="&#x26;" horiz-adv-x="1259" d="M174 207q0 -53 20.5 -109.5t41 -73t49 -26.5t55.5 -14t48.5 -5.5t29.5 -1.5t29.5 11.5t49 32t59.5 48t58 60.5q31 -25 77 -51.5t92 -49t85 -38t56 -15.5q8 0 30.5 14.5t51 40t59.5 60.5t57 76l-35 41q-53 -53 -81 -53q-25 0 -63 17t-76 41t-73.5 50.5t-56.5 44.5q4 4 5 7 t3 5v-2q16 29 28.5 45.5t35.5 45.5q10 14 19.5 22t27.5 23q4 4 8 6h41q20 0 46 1t47.5 2t37 2t19.5 3q25 12 52.5 37.5t53.5 58.5q31 37 52.5 71t31.5 52h-2q10 16 16.5 33.5t6.5 34.5q0 18 -11 34l-2 3q-8 8 -20 8q-6 0 -15.5 -6.5t-17.5 -14.5t-14 -16t-6 -10q6 -29 6 -47 q0 -14 -4 -19q-16 -16 -41 -24.5t-72 -14.5l-319 -39q-14 -2 -36 -10t-38 -18q-12 -10 -30.5 -24.5t-34 -31t-27 -32t-11.5 -23.5v-4q-6 10 -13 17t-13 18q31 27 64.5 61.5t61 71.5t46 73.5t18.5 67.5q0 12 -8 42t-28.5 60.5t-56.5 54t-91 23.5q-33 0 -80 -43t-91 -95 t-75 -97t-31 -51q0 -123 76 -244q-25 -20 -40 -35.5t-29 -32.5l-27 -26l-8 -6q-18 -23 -46 -59t-28 -58zM377 268q0 16 4 42t16 50q6 -8 11.5 -15t9.5 -15q4 -6 9 -10.5t9 -10.5q8 -10 22.5 -26.5t33 -37t38 -40t37.5 -33.5q-12 -8 -22 -10q-18 -10 -41 -13.5t-33 -3.5 t-30.5 11.5t-30.5 23.5q-16 23 -24.5 42.5t-8.5 45.5zM455 737q0 88 12 88q18 0 36.5 -15t33 -38.5t23.5 -53.5t9 -61q0 -41 -57 -100q-57 96 -57 180zM594 444h6l141 11q-4 -10 -10 -20.5t-12 -22.5q-2 -4 -2 -6l-2 -5q-8 -16 -12.5 -23t-16.5 -30q-20 18 -37.5 35.5 t-36.5 40.5q-12 12 -18 20z" />
<glyph unicode="'" horiz-adv-x="401" d="M102 1774q0 6 30 18t65.5 24.5t66.5 21.5t35 9q16 0 18 -8t2 -27q0 -23 -4 -64.5t-10 -98t-15 -121t-22 -131.5q-6 -39 -21.5 -76t-33.5 -37q-20 0 -27 31v-2q-6 16 -14 53t-17.5 83t-18.5 98t-16 98.5t-12.5 81t-5.5 47.5z" />
<glyph unicode="(" horiz-adv-x="376" d="M18 782q0 -78 5.5 -168t20.5 -190t46 -209t80 -221h33l209 65q-39 104 -69 194.5t-51.5 176.5t-35.5 174t-23 189q-2 18 -3 42.5t-1 53.5q0 72 7.5 154.5t25 156.5t47 129t76.5 70l12 26l-30 91q-84 -59 -148.5 -147.5t-108.5 -190t-68 -205t-24 -191.5z" />
<glyph unicode=")" horiz-adv-x="376" d="M6 1430q37 -102 65.5 -192.5t51 -176.5t37 -174t24.5 -189q0 -20 1 -43.5t1 -54.5q0 -70 -8 -154t-27.5 -159.5t-52 -132t-84.5 -70.5l37 -104q82 55 146.5 143t108.5 189.5t67.5 206t23.5 190.5q0 156 -26.5 354.5t-124.5 437.5h-31z" />
<glyph unicode="*" horiz-adv-x="636" d="M35 1298l17 8q16 9 38.5 23t45 29.5t36.5 32.5q23 14 29 24t14 21h2q-16 18 -45 45q-16 12 -29.5 22t-28 20.5t-33 23t-44.5 30.5l41 41q37 -20 58.5 -31.5t34.5 -17.5t24.5 -9.5t29.5 -7.5q14 -6 26.5 -9t22.5 -7q8 8 12.5 25.5t10.5 50.5v-2q0 2 1 3t1 5q2 23 3 39 t3 34.5t5 42t9 60.5l54 -4l2 -18q2 -19 4 -44.5t5 -55.5t7 -52v2q16 -57 33 -86q10 0 22.5 3t40.5 17q23 6 49.5 19.5t49 27t38.5 23.5l15 10l25 -55q-12 -10 -15.5 -13t-7.5 -7q-18 -14 -52 -39t-63 -47l2 2q-12 -10 -21 -19.5t-18 -17.5l-2 -2q6 -12 15.5 -20.5 t32.5 -24.5q14 -14 38.5 -30.5t48 -30t41 -23t19.5 -9.5l-35 -59q-37 20 -57.5 31.5t-35.5 17.5t-29.5 10.5t-39.5 8.5q-23 10 -34 14t-23 4q-8 -14 -14 -27.5t-19 -44.5l2 2q-4 -23 -6 -47t-5 -45.5t-4 -38t-1 -20.5v-23h-53q-4 16 -4 23v22q-2 25 -4.5 63t-10.5 66 q-6 23 -10 39.5t-10 30.5q-10 0 -26.5 -4t-61.5 -20q-18 -4 -42 -16.5t-46.5 -25t-38.5 -23.5l-17 -11z" />
<glyph unicode="+" horiz-adv-x="1239" d="M158 551q0 10 18.5 33.5t43 48t49 43t36.5 22.5q47 10 81 12.5t56 2.5q23 0 39.5 -4t36.5 -13h2q18 -10 19 -34q0 -16 -6.5 -39t-15.5 -44.5t-22.5 -37t-25.5 -15.5h-285q-27 0 -26 25zM494 1006q20 12 50.5 30.5t51.5 30.5q51 31 91 52.5t63 21.5l18 -19q0 -23 -5 -53.5 t-9 -71.5q-10 -68 -22.5 -151.5t-12.5 -151.5q0 -8 -16.5 -21.5t-38 -25.5t-45 -20.5t-37.5 -8.5q-33 0 -33 27q-2 45 -7 99.5t-12.5 103.5t-13.5 87t-8 54q0 2 -2 4t-12 13zM541 494q0 43 18 55q14 6 39 21.5t47 29.5l-2 -2q10 6 18.5 12t18.5 13q6 6 18 6q20 0 27 -39 q4 20 14.5 44.5t23.5 47.5t25.5 38t20.5 15q10 0 42 -2t76 -6t95 -9t98 -11l17 -27q-4 -8 -9 -14l2 2q-8 -12 -20 -35t-27.5 -43.5t-30 -35.5t-24.5 -15q-53 0 -96 1t-78 1h-100q-20 0 -25 10v-55v-117q0 -37 1 -74t5 -76q-4 25 -28.5 19t-54 -24.5t-54.5 -37.5l-25 -20 l-6 -14v16q0 43 -4 94t-10 100q-4 39 -8 73t-4 59z" />
<glyph unicode="," horiz-adv-x="546" d="M-25 -262q0 14 9.5 28.5t25.5 30.5q6 10 14.5 19.5t18.5 23.5q10 12 27.5 39t37 61.5t41 73.5t39.5 74q37 66 61.5 111t29.5 55q23 0 59.5 1t67.5 3h-5q27 6 49.5 8t38.5 2q14 0 26.5 -2t16.5 -8q16 -16 17 -33q0 -27 -37 -43l-436 -440q-14 -8 -27 -16q-10 -8 -17 -14.5 t-20 -6.5q-10 0 -15 3t-11 7q-4 4 -7.5 9.5t-3.5 13.5z" />
<glyph unicode="-" horiz-adv-x="1050" d="M119 530l22 19q20 20 66.5 61t95.5 70q6 4 15.5 6t19.5 2q6 0 11 -2t13 -4q2 -2 19 -2q25 -4 77 -8t114.5 -7t131 -4.5t127.5 -1.5q35 0 62 3.5t49 7.5q6 2 12 2q8 0 13 2q12 2 14 2q4 0 8 2q12 2 19 2h24q16 0 19.5 -2t3.5 -19q0 -8 -14.5 -28.5t-31 -42t-31.5 -37.5 l-15 -16q-4 2 -23 2h-166q-84 0 -163 2t-144 6q-47 0 -86 1t-68 1q-14 0 -23 -1t-14 -1q-2 0 -24.5 -11.5t-32.5 -17.5l2 2q-16 -10 -31.5 -16t-31.5 -6q-39 0 -39 34zM270 545h2h-2z" />
<glyph unicode="." horiz-adv-x="507" d="M90 154q0 23 23.5 42t52.5 37l16 11q10 6 19.5 18t19.5 23q16 16 30.5 31.5t29.5 15.5q12 0 21 -9.5t22 -23.5q8 -10 18 -21.5t23 -21.5l31.5 -22.5t32.5 -26.5t26.5 -29.5t11.5 -27.5q0 -16 -15.5 -30t-35.5 -28q-12 -10 -25.5 -17t-23.5 -18q-6 -8 -13.5 -15t-13.5 -15 q-16 -16 -31.5 -29.5t-23.5 -13.5q-14 0 -38 21.5t-48 49.5q-10 6 -17 17l-39 26q-20 14 -36.5 27.5t-16.5 28.5z" />
<glyph unicode="/" horiz-adv-x="935" d="M164 49l442 1475l74 26l156 -43l-430 -1466l-76 -23z" />
<glyph unicode="0" d="M74 637q0 -293 63 -438q113 -233 404 -234q225 0 374 207q138 203 138 465q0 182 -36 315t-104 219q-117 145 -331 146q-240 0 -381 -211q-127 -188 -127 -469zM287 614q0 254 37 383q33 109 93 152t146 43t144.5 -39t93.5 -137q18 -66 28.5 -153.5t10.5 -200.5 q0 -123 -9.5 -219.5t-27.5 -161.5q-35 -111 -96.5 -153t-153.5 -42q-86 0 -139.5 39t-85.5 141q-20 66 -30.5 152t-10.5 196z" />
<glyph unicode="1" horiz-adv-x="1069" d="M186 20q0 12 6.5 16.5t16.5 8.5q41 10 119 45h22q12 0 21 2q4 0 12 1t16 1q10 2 23 2q14 0 31 2q2 98 4 153.5t4 86.5q2 18 2 29v22v33v72v639q-16 -2 -38 -5.5t-52 -7.5h2q-27 -6 -46.5 -8t-31.5 -2q-4 -2 -16 -2h-25q-41 0 -51 26.5t-10 55.5q59 29 139 50.5t151 39.5 q53 14 92 24.5t58 16.5q43 0 43 -55q-6 -121 -9 -260.5t-3 -276.5q0 -119 -1 -227.5t-2 -193.5t-2.5 -140t-3.5 -68h19h14q59 0 110.5 -7t98.5 -23q12 -23 29 -37l-6 -33q-23 -16 -74 -16q-25 0 -131 6q-109 6 -152 6q-45 0 -162 -6q-8 0 -15 -1t-15 -1q-45 -4 -73 -6 t-40 -2q-25 0 -42 5t-23 17q-8 6 -9 18z" />
<glyph unicode="2" horiz-adv-x="1075" d="M8 88q0 -10 1 -17.5t3 -13.5q4 -12 4 -10q0 -61 183 -61q16 0 68 2t142.5 6t159 5t121.5 1q70 0 124 -3t99 -13q20 -49 58 -50q29 0 52.5 30t23.5 56v117q0 37 -2.5 61.5t-5.5 43t-9 36t-14 39.5q-23 -4 -56.5 -18t-48.5 -37q-8 -23 -8 -41q0 -16 4 -37 q-74 -23 -163.5 -39t-202.5 -26q-63 -4 -139 -7t-169 -3q78 51 148 98t129 92q115 86 203 165t153 157q164 199 164 358q0 162 -121 252q-123 94 -286 94q-211 0 -410 -188q-164 -160 -164 -265q0 -47 41 -47q12 0 23 11q12 14 23 27.5t26 27.5q12 14 24.5 27.5t26.5 27.5 q23 29 46.5 55.5t51.5 55.5q113 94 242 94q10 2 20 2h23q98 0 162.5 -47t64.5 -145v-19q0 -6 -2 -16q0 -117 -125 -273q-45 -55 -111.5 -118.5t-156.5 -141.5q-10 -8 -18.5 -14t-18.5 -14q-8 -8 -17 -15.5t-20 -15.5q-18 -14 -34.5 -23.5t-34.5 -19.5q-18 -12 -38 -24.5 t-40 -28.5q-18 -10 -40 -21.5t-40 -21.5q-25 -10 -44.5 -19.5t-29.5 -17.5q-29 -20 -37 -37t-8 -33z" />
<glyph unicode="3" horiz-adv-x="1085" d="M23 217q0 -102 184 -184q88 -35 170 -51.5t164 -16.5q102 0 186 21.5t152 72.5q161 117 161 312q0 117 -55 199.5t-172 123.5q20 18 31.5 38t21.5 38q6 12 13.5 22.5t11.5 18.5q35 45 54.5 89t25.5 93q0 160 -117 250q-102 74 -268 74q-78 0 -161 -30t-175 -89 q-170 -111 -170 -174q0 -45 47 -45q39 0 154 98q94 88 270 88q117 0 178.5 -50t61.5 -136q0 -66 -32 -119t-100 -108l-73 -25q-33 -8 -63.5 -10t-61.5 -2h-41q-18 0 -39 -2q-47 -20 -66.5 -39t-19.5 -37q0 -31 44 -46.5t95 -15.5q16 0 31.5 1.5t28.5 3.5q147 0 241 -58 q102 -61 103 -190q0 -106 -95 -178q-47 -41 -103 -58.5t-122 -17.5q-174 0 -385 147q-10 2 -19 3l-8 1l-51 17h-4q-29 0 -28 -29z" />
<glyph unicode="4" horiz-adv-x="1085" d="M4 338q2 -23 48 -31t132 -8q98 0 198.5 2t188.5 6l-4 -203h-14q-33 0 -65.5 -2t-73.5 -6q-104 -10 -105 -69q0 -39 41 -41q16 -4 56 -4q23 0 54.5 3t78.5 7q92 6 120 6q29 0 119 -6q47 -4 78 -7t51 -3q90 0 90 43q0 53 -84 65q8 -2 0 -2q-6 0 -18 2v4h-8v-2 q-16 4 -34.5 5t-27.5 3q-6 0 -11 1t-9 1l2 -2q-8 2 -16 2h-13v209h152q-2 -6 -2 -20q0 -29 20.5 -50.5t42.5 -21.5q20 0 36.5 14.5t27.5 49.5q-4 23 -5 35t-1 22v18q0 10 2 21q0 10 1 19.5t1 19.5v14q0 6 -1 12.5t-1 16.5q0 20 6 69v15q0 33 -18.5 54.5t-41.5 21.5t-42 -23 t-27 -72v-4q-2 -10 -3 -20t-5 -17l-62 -14h4l-84 -2v539q4 23 4 45q0 25 2 49q2 35 4.5 68.5t8.5 66.5q0 102 -49 106q-35 2 -170 -186q-74 -98 -137.5 -184t-116.5 -162q-33 -43 -64 -87t-59 -87q-14 -23 -29.5 -44.5t-32.5 -43.5q-18 -23 -41.5 -56.5t-52.5 -76.5v2 q-41 -57 -41 -74v-6zM229 473l346 477v-473zM895 94q6 -2 10 -2t8 -2q-4 2 -10 2q-4 0 -8 2z" />
<glyph unicode="5" d="M66 274q0 -53 17 -100t50 -87t80 -68.5t104 -43.5q39 -6 74 -10t70 -4q117 0 227.5 28.5t190.5 108.5q84 78 111.5 178.5t27.5 204.5q0 180 -156 287q-66 45 -139.5 68.5t-157.5 23.5q-68 0 -138.5 -7t-133.5 -24l92 256h377q8 0 15 1t14 1q41 0 57 -10t26 -18v2l9 -8 q6 -4 9 -6.5t11 -2.5q14 0 32.5 10.5t49.5 39.5q25 23 41 68.5t16 80.5q0 4 -1 18.5t-1 18.5l-245 2h-428q-20 0 -27 -14l-207 -588v2q-8 -16 -11 -33.5t-3 -32.5q0 -43 49 -43q39 20 48 22.5t26 6.5q4 2 10 3t10 3v-2l78 25q80 25 174 24q129 0 231 -65q113 -70 113 -197 q0 -61 -20.5 -115.5t-59.5 -94.5t-94 -63.5t-123 -23.5q-20 0 -40.5 2t-41.5 6q-47 8 -90 29t-90 60q-96 80 -96 169v23q0 20 2 27q0 51 -51 51q-16 0 -33 -16.5t-29 -43t-19 -60.5t-7 -69z" />
<glyph unicode="6" d="M66 504q0 -217 116 -373q137 -168 348 -168q213 0 381 146q2 2 4.5 3t4.5 3l26 26h-4q121 139 121 332q0 197 -141 336q-135 123 -312 123q-80 0 -156.5 -35t-142.5 -100q12 66 45 131t80 137q41 59 101.5 121.5t140.5 134.5l45 45q12 14 26.5 28.5t26.5 30.5q6 6 6 19 q0 10 -7 19.5t-21 9.5q-80 0 -244 -134q-90 -72 -163 -155.5t-134 -184.5q-147 -244 -147 -495zM287 416q0 82 16 144.5t49 119.5h-2q72 115 203 115q139 0 219 -109q68 -88 68 -250q0 -158 -72 -262q-82 -117 -207 -117q-123 0 -199 107q-76 102 -75 252z" />
<glyph unicode="7" d="M119 1141q6 -70 14 -86v2q12 -27 33 -27q12 0 23.5 12.5t21.5 30.5l12 23q137 35 283 57q70 8 151.5 9t200.5 1h23q-94 -125 -169 -252t-136.5 -257t-111.5 -267t-97 -285q-18 -2 -37 -2q-18 0 -41 -2q-10 -2 -22.5 -3t-24.5 -3q-55 -6 -83 -27.5t-28 -44.5q0 -39 82 -38 q18 0 53 3t88 7q100 6 146 6q39 0 131 -6q47 -4 80.5 -7t54.5 -3q82 0 82 38q0 49 -61.5 64.5t-161.5 15.5h-19q8 225 146 541q125 307 299 528v-2q8 10 18 32t21 44l3 9t4 9.5t9 17.5t18 34l-428 -17h-274h-119q-51 0 -96 4v-2q-18 2 -27 2h-22q-31 0 -39 -20 q2 -23 3 -47.5t1 -44.5q-2 -10 -2 -25q0 -16 -2 -22zM161 1284q9 10 44 12l-4 -34q-49 12 -40 22z" />
<glyph unicode="8" horiz-adv-x="1085" d="M39 346q0 -184 154 -295q137 -92 331 -92q190 0 361 111q178 135 178 305q0 125 -77 210t-230 142q37 25 65.5 44.5t44.5 35.5q84 82 95 178v12q0 8 2 13q0 143 -119 225q-119 84 -266 84t-281 -92q-127 -98 -150 -238l3 6q-4 -8 -5 -51q0 -84 50 -151h-5q37 -37 72 -64 t76 -51q-55 -23 -99 -45.5t-79 -50.5q-121 -98 -121 -236zM242 418q0 72 69 125q20 20 60.5 36.5t93.5 38.5q111 -41 176.5 -68.5t97.5 -43.5q160 -86 160 -201q0 -98 -92 -153q-41 -29 -92 -42.5t-113 -13.5h-35q-8 0 -14 2q-4 0 -6 1t-6 1h2q-123 18 -215 113 q-86 86 -86 205zM297 1004q0 80 47 119.5t139 50.5q49 0 97.5 -14.5t88.5 -38t69.5 -56.5t41.5 -72q11 -35 11 -47q0 -53 -50 -96q-23 -20 -48 -39.5t-60 -36.5q-86 33 -137.5 57.5t-75.5 38.5q-123 66 -123 134z" />
<glyph unicode="9" d="M66 795q0 -193 137 -322q129 -125 293 -125q84 0 160.5 33t142.5 92q-39 -139 -137 -274q-37 -47 -97.5 -110.5t-146.5 -145.5q-37 -35 -55.5 -57.5t-18.5 -39.5q0 -31 29 -30h8q18 8 38.5 16t41.5 16h-2l76 29q88 59 165.5 127t143.5 160q96 135 153.5 289.5t57.5 334.5 q0 254 -146 406q-133 133 -338 133q-209 0 -358 -153q-147 -154 -147 -379zM276 834q0 164 82 272q78 115 205 115t201 -117q67 -106 67 -266q0 -154 -65 -250v2q-70 -106 -199 -107q-137 0 -217 103q-74 100 -74 248z" />
<glyph unicode=":" horiz-adv-x="307" d="M16 168q0 16 13.5 28.5t33.5 24.5q6 4 13.5 9.5t11.5 9.5q10 10 17.5 20t15.5 21q16 16 24.5 28.5t24.5 12.5q10 0 22.5 -14.5t28.5 -33.5q8 -8 14.5 -16t14.5 -16q12 -18 31 -31q12 -12 22 -23.5t10 -23.5t-7 -21.5t-21 -25.5q-8 -10 -16.5 -18.5t-18.5 -22.5 q-20 -20 -33 -39q-16 -16 -26.5 -28.5t-20.5 -12.5q-16 0 -36.5 23.5t-47.5 58.5q-10 16 -20.5 26.5l-20.5 20.5v-2q-14 12 -21.5 21.5t-7.5 23.5zM23 649q0 16 12 26.5t33 22.5h-2q6 4 20 16l14 13q18 16 31.5 28.5t22.5 20.5l8 8t12 9q23 0 37 -13.5t31 -38.5h-2 q6 -4 10 -11t12 -15q23 -25 40 -47.5t17 -42.5q0 -16 -9 -24.5t-25 -20.5q-6 -4 -13.5 -10.5t-17.5 -16.5v2q-10 -10 -21.5 -22.5t-21.5 -28.5q-10 -12 -14 -20.5t-21 -8.5q-14 0 -38.5 31t-47.5 67q-4 4 -14 12.5t-19 16.5q-35 29 -34 47z" />
<glyph unicode=";" horiz-adv-x="466" d="M-121 -326q0 14 10.5 26.5t26.5 31.5q8 8 19.5 20t21.5 29v-2q16 23 53 94.5t78 153.5q35 66 64.5 119t40.5 63q23 0 47 2t51 6q29 4 55.5 7t50.5 3q35 0 47 -12q16 -12 17 -31q0 -25 -35 -47l-436 -459q-4 -2 -7 -4t-8 -4q-12 -10 -26.5 -18t-30.5 -8q-20 0 -29 12 q-10 6 -10 18zM121 666q0 8 11 19t27.5 23.5t37 24.5t36.5 23l17 16q23 23 42 41t36 18q14 0 27.5 -18t29.5 -41q10 -12 17.5 -22.5t17.5 -20.5h-2q12 -12 24 -29q18 -16 28.5 -27.5t10.5 -25.5t-13 -27.5t-32 -29.5q-8 -6 -16 -12.5t-14 -14.5q-16 -10 -28.5 -19t-25.5 -20 q-16 -14 -27.5 -22t-23.5 -8l-9 7t-20 17q-6 10 -15 26.5t-24 28.5q-10 10 -29.5 23.5t-37.5 24.5q-20 10 -32.5 21t-12.5 24z" />
<glyph unicode="&#x3c;" horiz-adv-x="667" d="M16 739l559 805l119 -88l-465 -655l457 -654l-188 -139l-37 21z" />
<glyph unicode="=" horiz-adv-x="827" d="M55 283q0 2 1 8t7 14l-2 -2q10 12 19.5 23.5t28 33t53.5 61.5t94 111q16 -4 26.5 -5t17.5 -3t14.5 -5l17.5 -7q23 0 52.5 -1t61.5 -3l78 -4t76 -2q25 0 48.5 2t43.5 4q16 2 30.5 3t27.5 1q16 0 30.5 -4t28.5 -16v-11q0 -10 -2 -19t-16.5 -28.5t-44 -56.5t-84.5 -105h-152 q-41 0 -78 1t-72 3q-31 2 -57.5 3.5t-50.5 1.5q-37 0 -66.5 -5.5t-48.5 -17.5q-20 -10 -34.5 -11t-22.5 -1v8q-10 0 -17.5 7t-7.5 22zM76 567q0 10 1 11.5t5 5.5l-2 -6q2 4 29.5 37.5t63.5 74.5t73 80t57 55q14 12 27 13q10 0 14 -4.5t8 -10.5q2 -6 15 -6q35 0 83 -1t97 -3 q53 -2 100 -4t84 -2q10 0 19.5 4t19.5 8q14 6 30 13.5t36 7.5q16 0 19 -7.5t3 -15.5q0 -10 -28.5 -46t-62.5 -75t-61 -70l-28 -30l20 -18q-10 0 -14 1t-10 3q-12 2 -36 5t-69 3q-106 0 -180 6q-27 2 -48.5 3t-39.5 1q-45 0 -63 -8q-27 -10 -49.5 -22.5t-38.5 -20.5 q-20 -14 -37 -14q-16 0 -26.5 9t-10.5 23z" />
<glyph unicode="&#x3e;" horiz-adv-x="669" d="M27 102l465 652l-457 657l188 141l37 -20l447 -713l-557 -805z" />
<glyph unicode="?" horiz-adv-x="661" d="M23 1427q0 31 25.5 74t54 83t53.5 68l26 27l-2 -4q8 10 41 24.5t72 28t73.5 22.5t49.5 9q23 0 61.5 -21.5t78.5 -50t71.5 -61.5t38.5 -53h-2q14 -35 19 -69t5 -64q0 -63 -18.5 -120.5t-47 -110t-63.5 -100.5t-70 -91q-16 -23 -30.5 -42.5t-30.5 -39.5 q-45 -61 -64.5 -109.5t-19.5 -119.5q0 -41 23.5 -85t46.5 -83q16 -31 29.5 -55.5t13.5 -41.5l-19 21l-24 -29q-25 -28 -56.5 -62t-61.5 -62.5t-38 -28.5l-6 6q-6 8 -22.5 38.5t-34 72.5t-30.5 92.5t-13 97.5v4q0 43 18 93t49 104.5t69 111.5t74 113q14 16 25.5 34.5 t24.5 36.5q23 35 30 85.5t7 99.5q0 29 -2.5 53.5t-4.5 36.5v-4q-10 35 -26.5 81t-40 87t-55 69.5t-70.5 28.5q-14 0 -20.5 -36t-6.5 -75q0 -45 21.5 -101t58.5 -91l2 -2q2 0 4 -2q8 -10 21.5 -19.5t38.5 -15.5l18 -53q-47 -12 -110.5 -42t-104.5 -65q-10 -8 -20.5 -21.5 t-20.5 -37.5l-65 41q29 23 28 37q0 18 -4 22v-2q-14 25 -26.5 58.5t-21.5 70.5t-14 73t-5 66zM197 125q0 20 17 33.5t38 27.5q8 4 14 11q8 6 17.5 17t19.5 22q10 12 15.5 20t23.5 8q10 0 19.5 -9t19.5 -22q4 -10 10 -16t15 -10l-3 2q25 -16 52.5 -43t27.5 -45 q0 -14 -11 -25.5t-28 -25.5q-18 -12 -32 -27q-8 -6 -25 -23q-12 -14 -22.5 -23t-20.5 -9q-18 0 -27.5 13t-27.5 32l-25 22q-2 4 -10 8.5t-18 12.5q-16 10 -27.5 21.5t-11.5 27.5z" />
<glyph unicode="@" horiz-adv-x="1636" d="M90 727q0 90 41 180t111.5 174t164 158t198 128t213 85t210.5 31q115 0 216.5 -43t178 -111.5t121.5 -157t45 -178.5t-41 -180t-107.5 -171t-151.5 -150.5t-174 -121t-175 -80t-154 -28.5q-18 0 -71 36t-108.5 90t-98.5 118.5t-43 120.5q0 57 20.5 99t55 69.5t81 41 t99.5 13.5q102 0 205 -49q-70 121 -132.5 179t-91.5 58q-57 0 -102 -37l-31 21q18 37 55.5 71.5t79 61.5t83.5 42t69 15q25 0 57.5 -8t69.5 -29.5t75 -60.5t75 -100q35 -61 71.5 -146.5t59.5 -160.5q29 43 56.5 106.5t27.5 134.5q0 96 -54.5 169t-132.5 121t-164 71.5 t-147 23.5q-109 0 -203 -44t-164.5 -113.5t-110.5 -154.5t-40 -165q0 -25 3 -86t18.5 -141t46 -166t86 -159t138.5 -119t201 -46q33 0 78 27t78 51l27 -27q-37 -47 -87.5 -81.5t-99.5 -59t-94 -37t-74 -12.5q-133 0 -237.5 66.5t-176 171t-110.5 233.5t-39 256zM737 692 q0 -31 27 -79t63.5 -93t77.5 -76.5t70 -31.5q8 0 14 1t13.5 6t18.5 17.5t32 34.5q-31 106 -91.5 178t-119.5 90h2q-8 2 -21 2q-29 0 -57.5 -13t-28.5 -36z" />
<glyph unicode="A" horiz-adv-x="1572" d="M31 59q0 -51 112 -51h60q49 0 60 12.5t22 53.5v2q0 4 2 8q12 37 37 80l8 14v-2l153 301q94 20 209 21h43q23 0 45 -2l326 -21l127 -295l10 -20q12 -29 21.5 -52.5t9.5 -46.5q0 -8 -4 -20t-15 -31q57 -20 89 -20q47 0 101 17.5t89 27.5h-2q6 0 26.5 8t24.5 10 q-4 4 -21.5 30t-42 65.5t-54 87t-54.5 94.5q-33 57 -62.5 113.5t-53 101.5t-38 74.5t-16.5 35.5q-39 74 -67 144q-16 37 -33 73.5t-33 71.5q-8 16 -14 33.5t-15 34.5q-29 66 -53 128t-41 105q-14 18 -19 42t-5 46q0 8 1 15.5t5 23.5h-29q-14 0 -46 -13t-71 -28 q-35 -16 -64.5 -27.5t-35.5 -11.5q-16 0 -22.5 -20.5t-10.5 -50.5q-2 -8 -2 -17q0 -8 -2 -18q0 -14 -15.5 -44t-25.5 -52l2 2l-10 -19l-254 -430q-63 -6 -87 -44t-24 -73q0 -31 13 -45l-62 -102q-20 -37 -42.5 -76t-44 -74.5t-40 -64.5t-30.5 -41q-35 -35 -35 -64zM549 621 l276 456q43 -59 79 -127.5t65 -142.5l80 -197q-50 -12 -156 -12h-39q-18 0 -41 2z" />
<glyph unicode="B" horiz-adv-x="1470" d="M20 -18q0 -18 29 -39q41 29 78 39t66 10q25 0 41 -3t20 -5l4 28v-30h4h45q37 0 82 -1t90 -2.5t74 -1.5v-16q10 -2 25 -2h30h60q104 0 224 5t238 18q199 98 283 199.5t84 228.5q0 29 -4 56.5t-10 55.5q-14 51 -62.5 107.5t-127.5 110t-186.5 96.5t-240.5 65 q45 23 104.5 60.5t113 80.5t91 88.5t37.5 86.5q0 59 -33.5 101t-92 70.5t-136.5 45t-168 26.5q-31 2 -66.5 4t-71.5 4t-69.5 3.5t-58.5 1.5q-74 0 -133 -6.5t-96 -10.5q-4 -2 -11 -2q-98 -12 -144 -43t-46 -57q0 -16 17.5 -30.5t50.5 -14.5q4 0 7 -38t3 -97l8 -1006 q0 -27 -6 -38t-12.5 -15t-17.5 -12.5t-25 -18.5q-31 -23 -61 -49.5t-30 -52.5zM383 1102q0 41 2 74.5t6 60.5q4 16 12.5 32.5t18.5 28.5q2 4 2 2t4 9l152 12q16 0 34.5 1t36.5 1q59 0 116.5 -3t104 -12.5t75 -23.5t32.5 -37q2 -4 3 -8t3 -8q2 -6 4 -11.5t2 -9.5l-4 -4 q-20 -37 -62 -73.5t-98.5 -73.5t-119 -71t-123 -61.5t-111.5 -47t-82 -27.5q0 10 -1 21.5t-1 27.5q-2 41 -4 94.5t-2 106.5zM391 670q29 10 66 26.5t78 32.5q39 16 70.5 31.5t47.5 17.5q6 0 13.5 1t15.5 1q66 0 152 -21.5t168.5 -59t148.5 -89t90 -108.5q6 -16 10 -34.5 t4 -37.5q0 -59 -32.5 -116.5t-87 -103.5t-124 -79t-141.5 -43h-4q-14 -2 -29.5 -3t-35.5 -1h-76t-76 2q-27 0 -48 1t-38 1h-39q-27 0 -54.5 1t-49 2t-21.5 3z" />
<glyph unicode="C" horiz-adv-x="1605" d="M27 616q0 -92 11 -176t43 -156.5t88 -131t145 -100.5t216 -64.5t301 -22.5q88 0 162 11.5t135.5 30t113.5 41t99 44.5q8 4 18.5 8t18.5 6q70 43 108 67t58.5 38t28.5 23.5t18 21.5q29 78 29 106q0 31 -11.5 40.5t-23.5 17.5q-4 4 -9 5t-5 5q-16 16 -42 25.5t-44 9.5 q-23 0 -33 -16v2q-12 -23 -30.5 -42.5t-35.5 -37.5q-6 -8 -12 -15.5t-10 -11.5q-33 -35 -87 -70.5t-114.5 -66.5t-121 -53.5t-105.5 -28.5q-47 -8 -100 -8q-74 0 -140.5 13t-122 31.5t-94.5 39.5t-57 35q-45 35 -74 76.5t-45 85.5t-22.5 87t-6.5 84v21q0 12 2 24 q2 45 9.5 91.5t16.5 83t19.5 63.5t16.5 37q39 70 84 122t80 79q90 74 181 103.5t177 29.5q111 0 208 -31t167 -59q10 -4 12 -5.5t29 -11.5h-2q8 -4 16 -6t17 -6q37 -20 73 -21q33 0 62 23h-2q14 10 24.5 18.5t18.5 14.5l-2 -2q16 10 25.5 17t9.5 22q0 16 -13.5 26t-36.5 29 q-12 0 -34.5 9t-51.5 24q-41 20 -88 39.5t-88 29.5q-135 35 -250 35h-6q-10 2 -28 2h-41q-53 0 -132 -10t-172.5 -46t-197 -103.5t-201.5 -182.5h2q-37 -41 -65.5 -102.5t-48 -123t-28.5 -113.5t-9 -73z" />
<glyph unicode="D" horiz-adv-x="1691" d="M23 10q0 -23 18 -33q0 -8 3 -9t17 -1h5v41q98 0 118.5 -2t-26.5 -16h18q4 0 10.5 1t12.5 1q10 2 18 2h21h73q16 0 27 -2q68 -6 157 -12.5t179 -6.5q96 0 201.5 30t209 82t200.5 123t177 154q61 61 107.5 128t78 132.5t48 127t16.5 114.5q0 72 -21.5 130.5t-59.5 104.5 t-90 82t-111 64q-86 39 -183.5 61.5t-186.5 34t-164 14.5t-114 3h-61q-14 0 -28.5 1t-30.5 1q-119 0 -254 -6q-12 -2 -22.5 -3t-20.5 -1q-4 0 -10.5 -1t-10.5 -1q-20 -4 -29 -5q-35 -4 -59.5 -8t-46.5 -8q-74 -12 -102.5 -34.5t-28.5 -47.5q0 -20 8 -26q6 -14 29 -29v-2 q12 -10 20 -15.5t17 -15.5q4 -4 16 -29.5t12 -76.5q0 -45 6 -109q4 -41 6.5 -84t2.5 -88v-39v-18t-2 -19q-8 -88 -15.5 -171t-12.5 -151.5t-9 -117.5t-4 -70q-2 -6 -15.5 -16t-54.5 -35h22q-39 -37 -60 -71.5t-21 -51.5zM45 -25l2 -2zM80 -31q2 0 3 1t3 1q-4 0 -6 -2z M92 -27q23 4 38 8.5t28 8.5h-2q-8 0 -39 -10l2 2q-10 -4 -27 -9zM395 141l13 488q-6 63 -7 116q0 35 1 71t6 83q4 53 7 114.5t5 143.5q0 10 12 15.5t30.5 8.5t37.5 3h35q-2 4 23.5 5t66.5 1q55 0 118.5 1t110.5 5q10 -2 22.5 -3t22.5 -3q4 0 9 -1t10 -1q2 0 5 -1t7 -1 q55 -8 118.5 -17.5t127.5 -31.5q57 -23 111 -50.5t96 -60.5t67 -69.5t25 -75.5v-11q4 -10 4 -36q0 -66 -56.5 -162.5t-154.5 -200.5q-55 -61 -127 -120.5t-149 -105.5t-154.5 -75t-147.5 -29h-295z" />
<glyph unicode="E" horiz-adv-x="1456" d="M33 1323q0 -18 11 -30.5t28 -22.5q10 -8 19 -17.5t13 -19.5q10 -41 12.5 -97.5t2.5 -115.5v-78q2 -14 2 -27q0 -10 2 -22q4 -72 7 -128t3 -122v-108l-4 -365v-29q0 -2 -4 -6q-8 -10 -16 -24l2 2q-16 -27 -26.5 -47.5t-10.5 -36.5q0 -61 80 -62q8 0 16 1t18 1q10 2 21 2 h27h22q27 -2 57 -2h66h133q41 0 78 1t67 1h121q63 0 169 4.5t208 14.5q14 2 25 2h22q41 0 71 -5t48 -10q8 -2 13 -4t16 -2h10q18 6 35.5 19.5t34 29t31 31t24.5 25.5l12 14q12 16 20.5 25.5t18.5 19.5q16 16 26.5 28.5t14.5 24.5l-2 -4q6 16 8 25.5t2 17.5q0 35 -35 35 q-23 0 -59 -14q-10 -4 -53 -17.5t-99 -27.5q-47 -14 -121.5 -17.5t-142.5 -7.5q-25 -2 -49 -2q-23 0 -41 -2q-47 -6 -110.5 -9t-128.5 -3h-84l-299 4q-4 0 -6.5 -1t-6.5 -1v63q0 16 -1 40t-1 55q-4 41 -6 90t-2 96q0 12 1 25.5t1 23.5q6 106 6 217q0 29 -1 60.5t-1 64.5 q0 -2 39 -3t102 -1q66 0 148 1t168 3h39q74 0 144.5 -7t127.5 -15q35 -4 64.5 -7.5t50.5 -3.5q33 0 45 11q23 20 34 32.5t19 20.5h-2q4 8 8 12q23 29 36 49.5t13 36.5q0 25 -17 34t-54 13q-35 2 -91.5 3t-129.5 1q-68 0 -148 -1t-166 -3h-20h-92t-91 -2q-41 -2 -77 -2h-70 q-23 0 -45.5 -1t-42.5 3q-4 12 -6 43t-2 62q0 29 4 46t14 17l420 2q61 0 122.5 -6t108.5 -12q49 -6 80 -6h17q55 12 108 53q20 14 26.5 22.5t12.5 18.5l-2 -2q4 4 7 9t12 13q34 40 34 66q0 43 -47 45h-30q-23 0 -61 -3t-64 -11q-29 0 -88.5 -1t-141.5 -4q-78 -2 -171 -4 t-188 -3t-189.5 -2t-176.5 -1q-41 0 -60.5 -20.5t-29.5 -38.5v4q2 0 -2 -4q-14 -18 -14 -33z" />
<glyph unicode="F" horiz-adv-x="1335" d="M37 1315q0 -25 15.5 -42.5t33.5 -31.5q23 -18 35 -37q12 -41 14 -104.5t2 -177.5q2 -23 2 -41t2 -35q2 -31 4 -60.5t2 -76.5v-533q0 -8 1.5 -14t1.5 -12q0 -18 -5.5 -28.5t-13.5 -23.5q-6 -10 -12 -24q-6 -8 -12.5 -16.5t-10.5 -14.5q-14 -16 -25.5 -31.5t-11.5 -34.5 q10 -43 54 -43h14q16 4 30.5 7.5t28.5 7.5q53 12 103.5 22.5t72.5 10.5h15l12 12q12 14 19.5 28.5t7.5 36.5q-20 35 -29.5 80t-9.5 90v19q0 8 2 16q-6 125 -6 240q0 158 6 297v-2q2 16 2 32v33q31 8 95.5 13.5t150.5 5.5q53 0 112.5 -3t116.5 -10q61 0 116.5 -6t108.5 -10 l78 -8t80 -6q4 0 5 -1t5 -1q29 0 49.5 20.5t34.5 42.5q2 6 13 12q29 33 40 57.5t11 45.5v4q0 29 -14.5 41t-34.5 12q-18 0 -27 -6h-61h-80t-99 -2q-72 -2 -152.5 -3t-158.5 -1h-80q-37 0 -74 -2q-35 -2 -69 -2h-66q-29 0 -56.5 -1t-51.5 3q-2 14 -3 37.5t-1 52.5v37 q0 18 4 18l411 2q59 0 120 -6t108 -12h-2q23 -4 44 -5t38 -1h18q31 6 56.5 20.5t52.5 30.5q23 14 28.5 20.5t12.5 16.5l-3 -2q2 4 6.5 11t14.5 17q16 16 26.5 34t10.5 38q0 49 -60 53h-6q-6 0 -22.5 -8t-34.5 -18.5t-33.5 -20.5t-19.5 -14l-4 37q-41 -10 -116 -16.5 t-153 -10.5q-8 0 -13 -1t-11 -1h-31q-10 0 -21.5 -1t-23.5 -1h-166q-16 -2 -31.5 -3t-31.5 -1q-29 0 -63 2l-68 4l-82 4t-86 2q-47 0 -92.5 -3t-86.5 -11q-23 -23 -22 -45z" />
<glyph unicode="G" horiz-adv-x="1585" d="M39 653q0 -66 15.5 -138.5t49 -145t85 -142t124.5 -131.5q37 -31 76 -55.5t84 -41.5t100.5 -26.5t124.5 -9.5h60t63 4q12 0 53 7.5t101.5 19.5t134.5 30.5t150 45.5v-2q39 12 62.5 20t49 22.5t61 38t101.5 66.5l-2 -2q35 18 46 47t11 80q0 23 -1 49.5t-3 59.5q0 10 -1 22 t-1 23q2 47 6 84.5t8 70.5q6 55 7 92q0 23 -2.5 37.5t-12.5 24.5q-25 33 -98 33q-27 0 -59.5 -3.5t-77.5 -7.5q-14 -2 -29 -2h-25q-63 0 -106 23q-8 0 -22.5 -9.5t-29 -24.5t-24.5 -33.5t-10 -37.5q0 -43 45 -65q10 -4 19.5 -6t17.5 -2h100q4 -4 12.5 -5t16.5 -1 q10 0 22.5 -4.5t12.5 -26.5q0 -23 1 -45.5t3 -42.5q2 -23 2 -41v-35q0 -8 -1 -14.5t-1 -12.5q-2 -10 -2 -22v-27v-35q0 -18 4 -41v-2q0 -23 -30 -46t-84 -48.5t-128 -51.5t-162 -48q-10 -2 -21 -3t-22 -1q-10 0 -17 1t-15 1q-14 2 -29 2h-27h-10q-45 0 -92 13t-85 29.5 t-64.5 33t-30.5 20.5q-55 35 -106.5 91t-82.5 116q-14 25 -28.5 59.5t-25.5 75.5t-18.5 86t-7.5 88v51q8 88 60.5 169t123 145.5t147.5 109.5t136 62q59 18 121 28.5t121 10.5q92 0 172 -25t135 -78q31 -18 78 -18q23 0 46.5 3t47.5 7q49 12 87 35.5t38 54.5q0 20 -26 43 q-37 27 -95.5 50.5t-132 40t-162 26.5t-186.5 10q-229 0 -398 -64.5t-298 -187.5q-59 -59 -106.5 -128.5t-79 -142.5t-48 -144.5t-16.5 -135.5z" />
<glyph unicode="H" horiz-adv-x="1499" d="M98 -12q8 -31 21.5 -40t34.5 -9q10 0 15 1t13 3q10 2 20.5 4t22.5 4q16 10 32.5 16t33.5 13q35 10 51 18q2 2 4 3t4 3l-2 -4q27 16 46.5 30.5t19.5 45.5q0 6 -1 14t-5 19v-3q-6 23 -7.5 76.5t-1.5 151.5v164q0 10 1 20t1 23q2 14 2 28v31v59q0 20 63.5 25.5t170.5 5.5 h237q16 0 34 1t34 1h105q76 0 124 -3t48 -19q0 -43 -1 -95.5t-4 -89.5v2q-4 -57 -6 -103t-6 -88t-10 -83t-14 -86q-4 -29 -6.5 -40t-8.5 -50v-8q0 -2 1 -4t1 -5q0 -20 12.5 -32.5t26.5 -16.5v-4l33 -6l3 6l3 6q16 2 29.5 7.5t27.5 13.5h-2q4 2 7.5 3t7.5 3q8 4 15 7t15 3 q72 16 111 51q29 29 29 70q0 23 -10 64q-4 23 -10.5 78t-10.5 126q-8 74 -10 138.5t-2 124.5q0 68 2 134t6 140q2 16 2 35q0 20 2 41q0 41 2 81t6 80.5t6 82.5t2 83q0 12 -1 25.5t-1 26.5q0 45 -65 45q-37 -4 -89 -17.5t-89 -34.5q-18 -12 -31.5 -25t-13.5 -30q0 -8 4 -16 q4 -16 8 -34.5t8 -31.5q2 -6 3 -14t3 -14q10 -57 11.5 -112.5t1.5 -113.5v-71v-39q0 -18 2 -35q-4 -25 -73 -32t-177 -7h-82h-43q-23 0 -45 -2h2q-10 0 -26.5 1t-35.5 1q-16 0 -35.5 -1t-41.5 -1q-33 -2 -66 -2h-66q-29 0 -56.5 1t-49.5 5q-16 2 -20.5 6t-4.5 8v13 q0 8 -2 16v68t1 47t3 36.5t5 36.5q2 10 3 21.5t3 28.5v2q2 55 5 97t6 72.5t6 54t7 46.5q0 14 2 18q2 6 4 16.5t4 18.5q-23 29 -61 29q-43 -6 -85 -22.5t-73 -45.5q-20 -4 -26 -6q-29 -8 -44.5 -14t-22.5 -13.5t-8 -20.5t-1 -38v-8q20 -59 24.5 -123.5t6.5 -138.5 q4 -55 5 -104.5t1 -100.5v-57v-29q0 -12 -2 -29q-2 -29 -3 -63.5t-3 -71.5v2q-2 -23 -2 -45v-45q0 -23 -1 -45t-4 -47q-10 -92 -12 -145v2q-4 -47 -6 -82t-16 -76l6 -4l-10 -31q-4 -14 -7.5 -30.5t-3.5 -26.5zM229 1378v2h2q-2 0 -2 -2z" />
<glyph unicode="I" horiz-adv-x="452" d="M106 14q0 -16 12.5 -31.5t41.5 -15.5q20 0 39 6q29 10 57.5 26.5t50.5 33.5h-2l12 4h-2q66 18 86.5 30.5t20.5 38.5q0 2 -1 8.5t-3 16.5q-2 6 -4 18.5t-4 32.5q-10 199 -14.5 348.5t-4.5 278.5t4 243.5t15 247.5q4 53 11 87t11 47v6q0 29 -41 28q-18 0 -51 -10t-68 -37v2 q-16 -10 -30.5 -19t-28.5 -15q-39 -20 -57 -37q-2 -2 -4 -3t-5 -3l5 2q-16 -10 -25.5 -18.5t-9.5 -24.5q0 -4 1 -10.5t5 -12.5v2q0 -4 10 -14q4 -4 7 -10.5t10 -14.5q0 -4 1 -13t3 -30q0 -4 1 -9t1 -9v-39q0 -18 2 -29v-934q-2 -4 -2 -14q-4 -25 -12.5 -59.5t-30.5 -71.5 q-6 -8 -7 -23z" />
<glyph unicode="J" horiz-adv-x="966" d="M-2 39q0 -14 4 -23v4v-4q10 -27 15.5 -29.5t31.5 -6.5q4 0 9 -1.5t10 -1.5q16 -2 46.5 -11t65.5 -19t65.5 -21.5t47.5 -17.5q66 -23 141.5 -38t145.5 -15q55 0 92 12q78 20 129 111.5t65 285.5q14 143 20.5 261t6.5 214q0 35 -1 68t-3 59v351q6 49 6 65v25q0 2 1 8t3 22 q2 2 3 5.5t3 7.5q6 12 9.5 20t3.5 19q0 10 -15 45q-10 18 -29 18q-18 0 -28 -8h-6q-33 -6 -81 -32t-85 -48h2l-76 -33q-72 -55 -72 -86q0 -16 11 -22l24 -19q10 -10 22.5 -20t18.5 -21q23 -31 26 -86t5 -151q0 -35 1 -75t3 -87q2 -37 3 -77t1 -85q0 -66 -2 -141.5t-6 -165.5 q0 -18 -7 -61.5t-21.5 -86.5t-36 -75.5t-48.5 -32.5q-43 4 -86 24.5t-78 57.5q-39 45 -64.5 67.5t-55.5 22.5q-25 0 -52 -14q-4 -2 -11 -8.5t-13 -10.5q-18 -14 -43 -32.5t-53 -28.5q-33 -18 -50.5 -36t-17.5 -42z" />
<glyph unicode="K" horiz-adv-x="1548" d="M88 20q0 -53 55 -53q41 10 78 18.5t72 18.5l72 19q53 18 53 45q0 10 -1 18t-3 18q-2 29 -5 63t-5.5 66.5t-4.5 60.5t-2 44q0 86 1 133t2 71.5t2 33t4 14.5v6q10 0 28.5 -9t35.5 -20.5t30.5 -21.5t13.5 -13q16 -14 36.5 -28.5t35.5 -24.5q47 -35 100 -74.5t131 -105.5 q61 -47 137 -103.5t150 -106.5t137.5 -85t97.5 -41q18 -12 39 -12q20 0 34.5 7t33.5 17q10 6 23.5 12.5t25.5 10.5q6 4 15.5 7t15.5 7q25 10 48 19.5t34 19.5q4 8 7 15.5t3 13.5q0 14 -15.5 26.5t-56.5 26.5q-53 12 -122.5 47t-149.5 83t-165 107.5t-166 121t-153.5 122 t-127.5 111.5q41 27 101 71t123.5 95t122 101t95.5 87q111 100 189.5 191.5t123.5 150.5h19v27q4 8 9 14t9 13q-4 -2 -10 -2q-4 0 -8 -3v25l-35 -35q-41 -12 -83 -26.5t-79 -28.5q-29 -10 -57.5 -19.5t-55.5 -17.5q-20 -29 -32.5 -46t-16.5 -28l2 2q2 6 2 4t-3 -8t-6 -14 t-5 -14q-2 -14 -6 -21q-12 -35 -50 -71.5t-75 -69.5q-10 -6 -17.5 -13.5t-15.5 -13.5q-76 -66 -149.5 -119t-114.5 -82q-18 -10 -35.5 -18t-34.5 -18q-41 -23 -80.5 -43.5t-78.5 -30.5q2 41 3 88t3 98q4 104 6 207t12 172q0 4 1 7t1 7v-2q4 14 7 23.5t3 34.5q0 20 -11 32.5 t-58 12.5q-43 -4 -89 -23.5t-89 -44.5h2q-6 -4 -10.5 -6t-10.5 -6q-18 -10 -33.5 -19.5t-25.5 -23.5q-8 -16 -8 -35q0 -14 10 -41q0 -6 2 -8q2 -55 4 -104.5t4 -95.5t2 -95v-102v-166q-10 -98 -12 -187.5t-6 -175.5q-2 -53 -2 -104t-4 -105q-8 -20 -15.5 -42.5t-7.5 -39.5z M406 596v2q2 0 2 2q0 -2 -2 -2v-2z" />
<glyph unicode="L" horiz-adv-x="1466" d="M70 -6q0 -10 6 -17.5t22 -7.5q14 0 40 5.5t55 13.5q61 12 118 12h940q10 -2 21 -2h20q35 0 70 10q53 29 74 84q4 8 16 30.5t12 47.5q0 14 -3 19.5t-21 5.5q-35 0 -58.5 -5.5t-64.5 -17.5q-16 -4 -35.5 -9t-44.5 -13h4q-61 -4 -93 -9.5t-54 -9.5q-16 -4 -33 -6t-38.5 -4 t-51 -3t-72.5 -3l-242 4h2l-133 18q-25 4 -31 22.5t-6 41.5v51q-2 16 -5 53t-5 79t-3 78t-1 52q0 53 -1 97t-1 81v180q0 59 4 111.5t21 130.5q0 23 5 71t11 101q4 43 7 80t3 49v12q0 29 -10 40.5t-33 11.5q-16 0 -38.5 -8.5t-51.5 -18.5q-18 -10 -43 -18q-16 -8 -46 -16.5 t-58 -16.5h2q-18 -4 -38 -10.5t-34 -10.5q-23 -10 -44 -25.5t-21 -31.5q0 -18 16 -29q55 -37 76.5 -120.5t29.5 -178.5q4 -55 6.5 -115.5t2.5 -125.5v-56q0 -27 -2 -55l-19 -450q0 -20 -18.5 -51t-32.5 -46l-23 -22q-10 -10 -20 -20.5t-14 -18.5q-20 -10 -30.5 -22.5 t-10.5 -18.5z" />
<glyph unicode="M" horiz-adv-x="2025" d="M72 18q0 -12 22.5 -26.5t50.5 -14.5q4 0 7.5 1.5t7.5 1.5q12 2 24.5 3t22.5 3q57 8 98 16t55 31q14 18 17.5 41.5t3.5 52.5v35q0 18 4 39q4 33 13.5 84t22.5 106t27.5 108.5t30.5 92.5q2 25 11.5 64.5t20.5 78.5t21.5 71t14.5 42v-2q8 27 18 49q23 51 23 55 q10 -12 33.5 -66.5t76.5 -189.5q10 -27 23.5 -57.5t28.5 -65.5v2q33 -92 56 -156.5t40.5 -109.5t30 -77.5t24.5 -61.5t25.5 -58.5t31.5 -70.5v2q6 -20 42 -28.5t61 -8.5h29q41 0 62.5 43t51.5 121q6 16 13.5 33.5t15.5 38.5l-12 -9q14 16 44.5 81t77.5 165q41 96 94.5 212 t106.5 233q0 -4 4 -25q20 -61 39 -133t39 -148q16 -59 32.5 -120.5t33.5 -120.5q10 -31 21 -75t24 -87q10 -37 18 -68.5t12 -44.5l-2 2q2 -10 2 -18v-18v-29q0 -12 5 -23v6q2 -6 22.5 -16t48.5 -10h92q41 2 64.5 3t38.5 3q12 4 21 9t9 20q0 14 -8 22t-18 27q-4 6 -17 22 q-39 51 -53 90q-35 102 -70.5 230.5t-70.5 253.5q-25 86 -41 156.5t-31 138.5q-4 10 -5 21t-5 24q-2 12 -3 21t-3 20q-10 47 -20.5 96t-24.5 100v-6q0 4 -1 9.5t-1 9.5q-4 29 -13.5 63.5t-19.5 50.5q-25 35 -70 35q-23 0 -39 -8h2q-16 -4 -34.5 -16.5t-36.5 -34.5 q-16 -35 -42 -97.5t-48 -121.5q-6 -16 -29 -65.5t-51 -111.5q-23 -47 -44.5 -93t-37.5 -87q-23 -47 -44.5 -95t-43.5 -95q-20 -41 -41 -85t-41 -87q-39 84 -73 165t-66.5 162.5t-66.5 169.5t-71 187q-12 29 -24 58.5t-23 62.5q-8 18 -13 35.5t-11 33.5v-2q-4 12 -11.5 30.5 t-15.5 35.5q-27 53 -61 53h-9q-68 -10 -106.5 -28.5t-60.5 -37.5q-20 -14 -26.5 -30.5t-12.5 -36.5l2 2q2 4 -2 -10.5t-9 -22.5q-4 -16 -7 -39.5t-7 -54.5q-2 -14 -4 -30t-6 -32q-14 -76 -41 -184t-70 -266q-12 -37 -23.5 -79t-23.5 -89q-20 -66 -39.5 -138.5t-42.5 -144.5 l2 2q-23 -43 -34 -66.5t-17 -38.5t-10 -27.5t-8 -30.5v-7z" />
<glyph unicode="N" horiz-adv-x="1607" d="M82 -6q0 -16 9 -23.5t20 -7.5h6q10 6 21.5 7t23.5 3q10 0 16 1t12 3q16 4 29.5 6.5t24.5 4.5q14 4 28.5 5t30.5 9l-2 -2q14 6 35 23q10 10 14 17t4 21v13q0 8 -2 14l-6 29q-2 25 -4 57.5t-3 64t-2 61.5t-1 48v70v125v182q-4 23 -4 41v39v47q0 23 2 49q0 16 1 34.5t1 41.5 q0 31 2 31h6q18 -8 53 -39t91.5 -87.5t138.5 -140.5t192 -198q61 -57 116.5 -113.5t108.5 -116.5q55 -59 111.5 -119.5t122.5 -117.5q18 -23 27.5 -32t21.5 -15q6 -4 12.5 -9.5t16.5 -15.5q29 -20 59 -20q41 0 74 27.5t43 49.5q10 27 13 46.5t3 42.5v57v51t-2 94q0 39 -1 83 t-2 83t-2 69.5t-1 47.5q0 82 1 145.5t3 116.5q2 39 3 76t1 74q2 23 6.5 67.5t7.5 96t7 101.5t6 85l-12 10q-8 16 -25 16q-8 0 -14 -4l2 2q-37 -10 -85 -30.5t-85 -38.5q-12 -6 -18.5 -18.5t-10.5 -22.5q-2 -4 -7 -13l-5 -10q4 -31 10 -66.5t10 -72.5q10 -66 12.5 -98.5 t4.5 -63.5q0 -16 1 -29.5t3 -29.5v-35q0 -18 2 -39q2 -47 4 -101.5t2 -107.5q0 -14 -2 -54t-5 -88t-7 -95.5t-9 -75.5q-41 25 -76.5 55.5t-70.5 67.5q-18 16 -35.5 32.5t-38.5 34.5q-43 37 -84 84t-80 90q-6 6 -11 12.5t-9 12.5q-35 31 -86 88t-108.5 126t-117 142.5 t-110.5 138t-89 113.5t-50 70q-4 0 -6 2q-4 8 -11.5 15t-21.5 7q-2 0 -3 -1t-3 -1q-25 -8 -46.5 -16t-37.5 -16q-6 -4 -12.5 -5.5t-12.5 -5.5q-31 -16 -68.5 -39.5t-39.5 -50.5v2q-2 -8 -2 -47q0 -27 1 -57.5t1 -61.5q2 -31 3 -56.5t1 -41.5q4 -63 5 -149t1 -185v-133 q-2 -98 -3 -153.5t-3 -83.5q0 -16 -1 -24.5t-1 -14.5v-11q2 -4 2 -12v-12q0 -27 -5.5 -64t-13.5 -73q-4 -20 -7 -39t-5 -35q0 -2 -1 -4t-1 -6v2q-2 -10 -2 -19v-16z" />
<glyph unicode="O" horiz-adv-x="1765" d="M70 629q0 -141 45 -264t140 -214.5t242.5 -143.5t352.5 -52q57 0 127 8t138.5 23.5t132 38t110.5 53.5q84 59 153.5 146t118.5 187.5t77 205t28 200.5v31l-6 35v-2q-6 59 -20.5 115.5t-55.5 115.5q-45 61 -110.5 116.5t-155 98.5t-203 70.5t-256.5 36.5h-2 q-31 0 -107 -10.5t-170 -40t-197.5 -85t-187.5 -144.5t-139 -218t-55 -307zM266 702q0 29 9.5 81.5t33 111.5t65.5 121.5t106.5 114t155.5 83t216 31.5h10q137 0 248 -39t191.5 -89t129 -99t60.5 -70q23 -16 37 -52t24 -108v-6q0 -4 1 -5t1 -3q0 -51 -24.5 -135t-70.5 -168 t-111.5 -152.5t-145.5 -87.5q-61 -37 -131 -54t-164 -17q-12 0 -24.5 1t-24.5 1q-53 0 -117 12q-57 12 -139 44t-156.5 93.5t-127 156.5t-52.5 234zM831 696q0 25 16.5 38.5t37.5 13.5q23 0 39 -13.5t16 -38.5q0 -27 -16.5 -39t-38.5 -12q-20 0 -37 12.5t-17 38.5z" />
<glyph unicode="P" horiz-adv-x="1363" d="M59 0q25 27 29 27v2q0 4 -1 5t-1 5q0 10 4 19.5t19 15.5q16 6 30.5 13t18.5 15l-2 -2q6 29 10 71t7 91t5 102.5t2 106.5v55q0 27 -2 56q-2 23 -2 47v45v57q0 29 2 55v-2q0 23 1 42.5t1 41.5q0 18 -1 39t-1 43q-4 51 -4 86t-2 60q0 16 -1 28.5t-1 18.5q-4 16 -5 34.5 t-3 32.5q-2 23 -4 41.5t-6 30.5v-2q-12 14 -25 25l2 -2q-12 4 -21.5 13t-9.5 27v5q0 37 44 50t100 13q20 0 39.5 -1t35.5 -3q16 2 39 2h58q78 0 184.5 -6t208.5 -18.5t187 -31t120 -42.5q59 -25 105.5 -66t77 -92t47 -109.5t16.5 -115.5v-23q0 -10 -2 -20q0 -8 -7.5 -27.5 t-18.5 -41t-24.5 -43t-27.5 -32.5h2q-33 -31 -86 -71.5t-128 -79.5t-171 -65.5t-215 -26.5q-16 0 -32.5 -1t-33.5 1h-14q-27 0 -48.5 5t-49.5 9q-27 4 -51.5 8t-38.5 4h-2q-4 -16 -4 -41v-49q0 -41 2 -88t5 -92t9 -84t12 -64q4 -16 22.5 -21t28.5 -5h39l-12 -80 q-47 0 -61.5 6t-16.5 14q0 -12 -12 -12q-20 0 -57 -1t-80 -3q-25 0 -56.5 -1t-64.5 -2t-62 -1h-45zM395 1016l2 -62q0 -31 1 -54t1 -40q0 -23 1 -37t1 -28v-105q4 -2 10.5 -4t14.5 -6l-2 2q41 -10 94 -25.5t100 -19.5q10 -2 17 -2h16q39 0 82 6t84 17.5t78 24.5t66 30 q98 47 147 111.5t49 129.5q0 106 -123 211q-27 20 -86 39t-134 33t-157 22.5t-151 8.5h-45q-23 0 -43 -4q-8 -4 -15 -23q-6 -12 -7 -42t-1 -64v-119z" />
<glyph unicode="Q" horiz-adv-x="1806" d="M98 623q0 -141 45 -264t140.5 -214.5t243 -143.5t352.5 -52q16 0 20 -2q4 0 8 -1t8 -1h21q2 0 18 6q2 0 5.5 1t7.5 1q-2 0 -3 1l-1 1q2 0 4 -2q76 -29 165 -63.5t179 -63.5t175 -48.5t152 -19.5q8 0 17.5 1t17.5 1q70 6 115 11.5t73.5 10.5t48 9t40.5 10h-2 q12 2 30.5 10.5t37 17.5t33.5 18.5t19 13.5q4 6 6 12l3 6q0 18 -19.5 26.5t-48.5 8.5q-41 0 -92 -7t-86 -11q-14 -2 -29 -2q-14 0 -16 -3q-6 0 -31.5 1.5t-58.5 3.5t-67 5t-58 9q-63 14 -108.5 27.5t-76 26.5t-51 25.5t-35.5 22.5q-4 4 -8 5t-8 3q49 25 59.5 29t20.5 8 t27 15q86 59 155.5 146t118.5 187.5t76.5 207t27.5 202.5v29q-2 8 -2 16t-2 17q-10 59 -23 115.5t-54 117.5q-45 61 -111 116.5t-156 98.5t-204.5 70.5t-258.5 36.5h-2q-31 0 -105.5 -10.5t-169.5 -40t-198.5 -85t-188.5 -145.5t-140.5 -220t-55.5 -308zM276 698 q0 29 9.5 82.5t33 115.5t66.5 128t109.5 118t161 86t221.5 34h14q141 0 256 -40t197.5 -91.5t132 -102.5t61.5 -72q25 -18 41 -57t27 -111q0 -4 1 -8t1 -8q0 -51 -24.5 -138t-72 -174t-114 -158t-148.5 -91q-4 -2 -11 -3t-13 -5q-20 -10 -50 -23.5t-67 -17.5h-8 q-8 -2 -17 -2h-6q-29 6 -59.5 10t-54.5 4q-31 0 -51.5 -11t-22.5 -34q-2 0 -4 -1t-4 -1h-11q-12 0 -28.5 4t-32.5 8v-2q-14 4 -25.5 7t-15.5 6q-59 12 -143 45.5t-162 97t-132.5 163t-54.5 242.5zM1251 41q12 0 15 -6q-7 2 -15 6z" />
<glyph unicode="R" horiz-adv-x="1294" d="M84 1364q0 -14 3 -18.5t13 -10.5l9 -10l4 -2q8 -8 16 -17.5t23 -25.5q12 -20 16 -46t4 -42l6 -1086q0 -35 -7 -60.5t-17 -45.5h-2l-13 -25q-8 -14 -8 -24q0 -20 10 -23q4 -2 17 -2q6 0 39.5 10.5t75.5 24.5t82 30.5t59 26.5v15q4 10 4 16q0 27 -8 62v-2q0 2 -1 3t-1 3 v174q0 66 -2 112q0 29 -1.5 53.5t-1.5 53.5v39q0 23 3 51v10q0 8 2 15q23 4 41 6t32 6h-2q18 4 31.5 5t34.5 7h8q12 -14 26.5 -33.5t28.5 -35.5q10 -12 20.5 -23.5t20.5 -26.5q59 -72 129 -155.5t136.5 -162.5t124 -144.5t91.5 -102.5q12 -12 31 -12q33 14 49 24 q12 8 24.5 15.5t27.5 9.5q61 23 98 38t51 25q8 8 11 12.5t3 14.5q0 33 -96 41q-16 0 -33 8v-2q-41 25 -76.5 62t-97.5 104h2q-10 12 -22 23.5t-25 25.5l2 -2q-35 39 -80 94.5t-88 109.5t-78.5 99t-50.5 66q4 2 9.5 4t11.5 6q10 4 20.5 9t24.5 14q6 2 16 6t13 4 q31 10 51 19.5t41.5 21.5t46 33.5t61.5 56.5v-2l115 100q27 43 41 67.5t21.5 42t8.5 34t1 43.5q0 29 -7 53q-16 57 -78.5 91t-146.5 52.5t-178 24.5t-176 6q-23 -2 -47 -2h-60h-139q-74 0 -152.5 -1t-144.5 -5h-6q-10 -2 -22.5 -9.5t-22.5 -23.5zM401 743v525q53 8 96.5 13 t102.5 9q16 2 31 2q16 0 35 2q57 0 127.5 -4t133 -21.5t105.5 -50t43 -88.5q0 -29 -10 -57.5t-27 -54.5l2 4q-47 -47 -106.5 -95t-126.5 -77h2q-240 -88 -408 -107zM874 762h3h-3z" />
<glyph unicode="S" horiz-adv-x="1310" d="M-4 291q0 -33 21.5 -70t59.5 -70.5t88 -63.5t105 -46q88 -29 178.5 -42t145.5 -13q29 0 82 3t119.5 15t140.5 39t142.5 76t127 122.5t92.5 180.5q2 10 2 16q0 8 3 19q4 31 10 67.5t6 79.5t-8 84t-28.5 77t-57.5 64.5t-95 44.5l5 -4q-12 4 -53.5 10.5t-100.5 8.5h-37 q-47 0 -100 1t-107.5 4t-106.5 11t-98 21q-55 16 -99 43.5t-66 56.5l2 -2q-6 14 -10.5 26.5t-4.5 24.5q0 29 13 47q10 14 28.5 28.5t38 28t37.5 24.5t31 18q39 14 88 22t97 13.5t92 6.5t75 1q14 0 46 -5.5t66.5 -12.5t64.5 -15t42 -14q61 27 88 43t27 57v18t-4 25 q-29 4 -46.5 7t-34 5t-32.5 4t-41 6q-4 0 -9 1t-11 1h2q-18 2 -45 3.5t-60 1.5h-102q-174 0 -326.5 -45.5t-245.5 -131.5q-86 -82 -86 -188q0 -10 1.5 -20.5t3.5 -20.5q4 -31 17 -54.5t28.5 -41t31 -29.5t27.5 -20q45 -37 91 -58.5t86 -33t72 -14.5t52 -5q4 0 5 -1t5 -1 q18 -4 68.5 -8t114.5 -8q66 -4 131 -9.5t96 -11.5q72 -16 97.5 -69.5t25.5 -114.5q0 -43 -6 -82q-2 -14 -20.5 -64.5t-64.5 -105.5t-123 -99t-196 -44q-41 0 -114.5 8t-151.5 29.5t-144.5 60.5t-91.5 102q-4 4 -10 16.5t-12 26.5l-8 12l-4 7q-4 35 -13.5 47t-25.5 12 q-20 0 -43 -26.5t-43 -57.5q-8 -10 -17.5 -21.5t-15.5 -21.5v-12z" />
<glyph unicode="T" horiz-adv-x="1402" d="M-51 1313q0 -33 55 -33q18 0 42 2t50 4q29 4 59.5 6t55.5 2q53 0 111.5 -1t111.5 -3q35 -2 64.5 -3t54.5 -1q4 -53 13 -179t18 -284q2 -61 3 -124.5t1 -127.5q0 -119 -5 -231.5t-16 -206.5q-2 -12 -8 -36.5t-10 -43.5l2 4q-4 -6 -4 -14q-4 -16 -8 -23.5t-9 -11.5 q-10 -16 -10 -24q0 -10 6 -17q12 -16 37 -16q16 0 34.5 5t43.5 13q10 4 20.5 7.5t32.5 7.5q10 2 20.5 6t22.5 8l-2 -2q37 10 46.5 15t29.5 22l12 8t15 12q-6 25 -9.5 38t-4.5 25.5t-2 28t-3 43.5q0 4 -1 9.5t-1 13.5q-2 35 -6 101.5t-7 147.5t-5 169t-2 166q0 143 7 243.5 t11 159.5q0 4 1 10t1 11q4 27 9 43t10 26q2 2 12 2q8 0 16 -1t19 -1q16 0 31.5 -1t33.5 -1h37q20 0 46 1t54 1h95q10 0 17 1t17 1q59 0 102.5 -11t55.5 -15l21 4l55 61q39 45 57.5 68.5t18.5 40.5q0 25 -19.5 28.5t-54.5 3.5h-20q-10 -4 -49.5 -9t-88.5 -9t-98 -7t-80 -3 q-12 0 -23.5 -1t-21.5 -3h2q-4 0 -12 -1t-15 -1q-68 -6 -139 -6q-59 0 -121.5 2t-121.5 6q-53 2 -104.5 3t-96.5 1h-80q-14 0 -25.5 1t-23.5 3q-10 2 -21 2h-22q-8 0 -33 2t-51.5 4t-51 5t-32.5 5h-8q-14 0 -38 -12t-48.5 -32.5t-46 -47t-31.5 -53.5v-6z" />
<glyph unicode="U" horiz-adv-x="1669" d="M68 393q0 -66 23.5 -130t60 -120.5t82 -99.5t88.5 -63q92 -43 186 -59.5t147 -16.5h50q76 6 149.5 15t146 32.5t144.5 64.5t145 109l2 -2q2 0 4 -2v-2h2v-4q-4 -6 -4 -23q0 -12 1 -19t3 -16q2 -10 3.5 -26.5t3.5 -16.5q-2 -6 -2 -10t-3 -8q14 -33 27.5 -45t30.5 -12 q12 0 24.5 5t26.5 13h-2q4 2 11 4t12 4q16 6 29.5 12.5t17.5 8.5q41 16 71.5 34.5t30.5 45.5v10q-4 16 -11 31.5t-16 31.5q-10 20 -17 39t-9 43v635q2 121 7 192.5t11 111.5t13.5 58.5t15.5 34.5q6 10 8 25q2 4 4 11t4 11v-2q6 16 11.5 30.5t5.5 29.5q0 16 -8.5 28.5 t-32.5 12.5q-4 0 -8.5 -1t-8.5 -1q-16 -2 -39.5 -11.5t-48.5 -19.5q-10 -4 -21.5 -9t-23.5 -9q-10 -4 -21.5 -10.5t-33.5 -22.5q-6 -4 -13.5 -8t-17.5 -11q-12 -8 -16 -10q-16 -10 -28.5 -19.5t-12.5 -31.5q0 -16 12 -31q8 -12 14 -18q4 -4 6.5 -9.5t2.5 -17.5v-696 q0 -86 -49.5 -167t-176.5 -142q-14 -6 -30.5 -12.5t-42 -12.5t-63.5 -14.5t-93 -16.5h2q-10 -2 -24.5 -3t-30.5 -1q-90 0 -232 25q-41 8 -86 31.5t-84 58.5t-67.5 79t-40.5 93q-12 33 -13 129q0 68 9.5 157t34 184t68.5 188.5t112 164.5q12 14 16 22.5t6 14.5q0 2 6 8 q10 10 22.5 25.5t12.5 34.5q0 29 -41 47q-8 4 -22 4q-27 0 -57.5 -6t-55.5 -11q-16 -4 -20 -4q-12 -4 -19.5 -5t-19.5 -7h2q-6 -2 -10.5 -4t-32.5 -6q-39 -4 -52.5 -24.5t-13.5 -49.5q0 -20 2 -30.5t2 -18.5v-12q0 -37 -11 -73t-28 -83v2q-16 -41 -35.5 -92t-35.5 -115 q-2 -12 -4 -23.5t-5 -21.5q-8 -41 -15 -76.5t-11 -76.5t-7 -90.5t-3 -114.5q0 -4 -1 -11.5t-1 -13.5z" />
<glyph unicode="V" horiz-adv-x="1572" d="M-4 1268q2 -16 8 -25.5t23 -23.5q4 -4 7 -6.5t7 -6.5q66 -106 127 -215.5t120.5 -220.5t123 -221.5t129.5 -216.5l143 -232q8 -10 10 -19t6 -20v2q4 -12 9.5 -24t11.5 -27q8 -16 21.5 -35.5t43.5 -19.5q6 0 22.5 2t37 5t39 7t30.5 9v-3q41 12 55.5 30t28.5 52 q2 10 11.5 30t18.5 41.5t18.5 40.5t15.5 30q35 92 70.5 185t70.5 181q4 12 10.5 25.5t10.5 25.5q31 76 60.5 151t62.5 151q29 72 58.5 143.5t57.5 144.5q0 -4 4.5 2.5t10.5 17.5t12 25.5t12 24.5q10 16 19.5 33.5t19.5 44.5q4 4 5 9t1 9q0 23 -16 32t-43 9q-29 0 -71 -11 t-84 -28.5t-77.5 -39t-52.5 -44.5q8 -12 8 -18q0 -4 -1 -9t-1 -10q0 -8 -1 -18t-1 -23q0 -37 -30.5 -145t-90.5 -301q-49 -160 -96 -296t-119 -267h2h-2q-2 -2 -2 -4q0 2 2 4q-8 0 -12 -2q-18 29 -45 69.5t-52.5 83.5t-49 83t-35.5 65q-45 78 -85 151.5t-74 136t-60.5 113.5 t-42.5 84q-14 23 -23.5 33t-17.5 14l12 4q-10 14 -25.5 44t-30 63t-25.5 63.5t-13 49.5q-4 12 -8 31.5t-8.5 39t-7.5 36.5t-3 24q-4 20 -15 29.5t-26 9.5q-18 0 -42.5 -12.5t-65.5 -35.5q-4 -2 -10.5 -5t-10.5 -5q-43 -20 -71.5 -48t-28.5 -52v-4z" />
<glyph unicode="W" horiz-adv-x="2306" d="M72 1264q0 -12 6 -19q6 -16 11 -25.5t32 -48.5q4 -6 14 -20q20 -37 32.5 -58.5t22 -39t17.5 -36t22 -50.5q31 -76 74 -167t90 -186.5t93 -187.5t85 -167t67 -126t36 -63h-2q8 -16 13 -25.5t11 -19t16.5 -22.5t28.5 -36q4 -29 31 -28q8 0 22.5 11t28 27.5t23.5 35t10 34.5 q35 92 56.5 154.5t33.5 104.5t18.5 67.5t10.5 44.5q2 14 4 25.5t2 13.5h2q8 23 20.5 66.5t26.5 98t29.5 114t27.5 112.5v-2q2 4 3.5 11t2.5 23.5t1 49.5v88q0 -4 12 -19q29 -59 51.5 -138t44.5 -156q8 -25 15.5 -47.5t13.5 -45.5q27 -94 49.5 -164.5t50 -141t64.5 -152.5 t92 -197q12 -29 45 -29q16 0 31.5 8.5t25.5 26.5q10 16 23.5 42t25.5 50v-2q8 14 15.5 28.5t3.5 10.5q20 35 54 100.5t76 149.5t90 181.5t96 195.5t94.5 193.5t84.5 174.5q41 88 73 149.5t42 84.5v-2q14 25 19.5 44t5.5 34q0 29 -13.5 35t-29.5 6q-18 0 -25 -4q-4 0 -5 -1 t-5 -1q-18 -4 -50 -12.5t-65 -23t-56.5 -34t-23.5 -45.5v-12q0 -33 -15 -81t-41 -107.5t-59.5 -129t-70.5 -145.5q-6 -14 -13.5 -27.5t-13.5 -26.5q-31 -72 -53 -121t-41.5 -88.5t-38 -75.5t-41.5 -77q-10 -18 -21.5 -41l-23.5 -47q-2 0 -10 -4q-68 170 -112 313.5 t-83 284.5q-18 61 -35.5 122.5t-37.5 123.5q-8 14 -17.5 51t-9.5 55v2q2 6 2 17q0 57 -82 57h-18l-16 -3q-17 -3 -38.5 -8.5t-42 -10.5t-30.5 -7q-14 -6 -23.5 -18.5t-18.5 -34t-18.5 -55t-23.5 -84.5q-4 -18 -10.5 -39t-12.5 -45v2q-6 -27 -13 -55.5t-17 -71.5 q-8 -35 -18.5 -83t-27 -115.5t-41 -158t-57.5 -213.5l-6 -6q4 -4 8 -13t15 -26q-6 10 -11.5 19.5t-11.5 19.5q-4 -6 -4 -12q0 -4 -2 -10q2 6 -1 19.5t5 4.5q-74 129 -134.5 261.5t-104.5 238t-67 172.5l-24 68q-31 84 -42 128l-19 76q-4 18 -10.5 38t-20.5 59q-8 20 -31 20 q-18 0 -42.5 -12t-55.5 -29h2q-6 -4 -13 -7t-13 -7q-4 -2 -8.5 -4t-10.5 -6q-14 -6 -31.5 -15.5t-33 -20.5t-26.5 -24.5t-11 -27.5zM1583 322q2 -3 2 -7q-2 2 -2 7z" />
<glyph unicode="X" horiz-adv-x="1617" d="M76 -100q0 16 10 35.5t18 29.5q6 8 21.5 24.5t38.5 39.5q25 25 53.5 55.5t48.5 52.5q68 80 120 140.5t92 106.5t71 80t55 62q35 41 65.5 76t69.5 82q-10 10 -18 22.5t-19 28.5q-37 47 -77.5 102.5t-83.5 108.5t-86 103.5t-82 89.5q-35 31 -50.5 47t-25.5 26 q-10 12 -18.5 19.5t-18.5 17.5q-16 12 -16 33q0 23 19.5 36t41.5 23h-2q10 6 21 13l12 6l-6 -14l20 13q21 13 49.5 30.5t58 33t46.5 19.5q8 2 22 2q37 0 37 -33q0 2 -1 -6t-3 -12q-8 -23 -8 -43v-4q4 -27 18.5 -59t28.5 -52q25 -47 95.5 -151.5t187.5 -243.5q8 14 24 30v-2 q88 109 148.5 190t76.5 132v-2q2 10 13.5 28.5t23.5 36.5q8 10 13.5 15.5t9.5 25.5q2 2 2 9q0 4 -2 5t-4 5q-10 10 -10 22t5 16.5t15 12.5l-4 -2q23 18 55.5 29.5t67.5 21.5q23 6 47 12.5t33 10.5q35 16 84 32.5t73 16.5h11q39 0 39 -33q0 -29 -56 -92q-10 -12 -38.5 -45 t-57.5 -68q-16 -20 -30.5 -37.5t-24.5 -27.5l-78 -84q-70 -74 -146.5 -161t-181.5 -216q66 -86 137.5 -173t139 -166t128 -144.5t105.5 -108.5q14 -10 34.5 -26.5t31.5 -26.5q28 -17 28 -35q0 -25 -30.5 -38t-71.5 -26q-10 -14 -22.5 -23t-26.5 -20q-23 -16 -39 -32 q-23 -23 -47 -23q-20 0 -34.5 17.5t-23.5 62.5q-6 10 -22 40t-55 77q-10 41 -82 137q-59 74 -133 162t-152 168q-41 -47 -89 -104.5t-83 -100.5v2q-41 -61 -57.5 -82.5t-28.5 -34.5q-8 -8 -15.5 -17t-19.5 -28q-2 -2 -4 -5t-6 -7q-16 -23 -44 -56.5t-38 -56.5q-6 -16 -6 -22 q0 -12 2 -15q2 -8 4 -13t2 -9q0 -20 -24.5 -28.5t-59.5 -14.5q-27 -4 -55.5 -10.5t-50.5 -16.5q-18 -8 -43 -16t-48 -17v3q-18 -6 -35.5 -10.5t-29.5 -8.5q-10 -4 -19 -4q-18 0 -24 7t-6 22z" />
<glyph unicode="Y" horiz-adv-x="1554" d="M66 1329q0 -18 5 -27.5t13 -21.5q14 -16 18 -27q6 -6 13 -14q16 -18 56 -62t99 -120q55 -68 118 -148t122 -158.5t108.5 -152.5t79.5 -129v2q2 -2 7 -22q0 -4 1 -6.5t1 -6.5q-4 -18 -5 -41v-47v-92q0 -25 1.5 -49.5t1.5 -48.5q0 -45 -9 -80q-6 -16 -8 -19q-6 -6 -11 -12 t-7 -14q-14 -8 -15 -27q0 -23 26 -35t56 -12h15q27 0 51 2t41 6h-2q25 6 47 6q12 0 24.5 -1t24.5 -1q10 -2 18 -2h21h18q10 0 21 2q39 6 39 31q0 14 -11 25q-4 4 -4 6v4q0 -2 -5 6t-9 12q-12 16 -12 19v39v47q0 27 -2 55.5t-2 56.5v66v45q0 25 2 49v17q0 4 -1 8t-1 8 q0 6 2 8q66 119 117 204t98 161q35 57 71.5 114.5t75.5 124.5q12 16 32 46t38 63q18 29 36.5 56.5t37.5 49.5q-4 -10 -2 -6t8 15.5t13 24.5t11 24l-2 -2q23 35 35 63q10 16 17.5 27.5t7.5 23.5q0 37 -41 37q-20 0 -41 -6h2q-47 -10 -117 -35.5t-129 -48.5h2q-37 -14 -37 -43 q0 -14 12.5 -29.5t20.5 -21.5q6 -4 6 -17q0 -33 -25.5 -92t-71.5 -141t-109.5 -183.5t-137.5 -215.5v2q-12 -16 -20 -29q-23 25 -60 69t-72 85q-23 23 -39 41t-22 28q-20 23 -36.5 44.5t-33.5 41.5q-61 78 -94 120t-50 66.5t-27.5 41t-26.5 41.5h2q-6 10 -18.5 34.5t-27 52 t-25.5 53t-15 40.5q0 8 2 16q2 10 3 19.5t1 19.5q0 23 -6 36t-29 13q-16 0 -31 -10h2l-18 -8q-20 -10 -43 -22.5t-31 -16.5q-39 -12 -57 -23.5t-41 -27.5q-10 -6 -20.5 -14.5t-24.5 -18.5q-16 -10 -16 -31z" />
<glyph unicode="Z" horiz-adv-x="1519" d="M57 45q0 -18 16.5 -30.5t51.5 -12.5q10 0 20.5 1t22.5 3q10 2 16 2h17q10 0 23.5 -1t27.5 -3t27.5 -3t29.5 -1q39 2 80 3t86 1q33 0 64.5 -1t66.5 -1q61 0 126 -1t132 -1q125 4 252 6t223 2h56t45 -2q10 0 23.5 -1t25.5 -3h-2q10 -2 18 -2h21q18 0 30.5 7t14.5 28l57 74 q29 31 47.5 53t22.5 45l-2 -2q6 16 8 29.5t2 23.5q0 25 -10 40t-33 15q-25 0 -59 -32q-12 -12 -35 -19.5t-45 -17.5h2q-4 -2 -17 -6q-25 0 -61 -11h2q-18 -4 -38.5 -8t-31.5 -6q-74 -6 -157.5 -10t-167.5 -6t-167 -3t-155 -1q-59 0 -107 1t-83 1h-56q-23 0 -22 10v2 q10 16 16 30.5t15 30.5q14 33 26 54v-3q29 41 55.5 78t51.5 76q41 55 78.5 108.5t78.5 106.5q63 78 124 157t122 156q70 92 140.5 183.5t148.5 187.5q23 31 22 53q0 29 -22.5 36t-42.5 7l1 1t1 4q-57 2 -121 2h-115q-123 0 -226 -2.5t-191 -6.5q-68 -2 -126.5 -4t-105.5 -2 h-37q-18 0 -34 2h-11q-14 2 -22 3t-21 1q-27 0 -41 -9t-26 -32l2 2q-4 -6 -8 -15t-11 -19q-4 -10 -13 -25.5t-26 -44.5q-16 -27 -16 -49q0 -45 49 -45q10 0 14.5 1t10.5 3q41 12 80 20.5t55 8.5q23 0 45.5 1t44.5 3h-2q102 4 217 7t240 3h78h6q-2 -4 -8.5 -18.5t-14.5 -28.5 l2 2q-66 -92 -166 -224.5t-227 -287.5q-16 -20 -37.5 -52t-50.5 -73q-61 -90 -152.5 -217t-218.5 -271l4 3q-18 -16 -30.5 -32t-12.5 -32z" />
<glyph unicode="[" horiz-adv-x="663" d="M109 0h505v86h-200q16 152 24 306.5t8 314.5q0 176 -8 350t-24 348h200v84h-505q12 -188 20 -385t8 -383q0 -178 -8 -361.5t-20 -359.5z" />
<glyph unicode="\" horiz-adv-x="770" d="M133 1264l367 -1229l65 -21l131 35l-356 1221l-66 22z" />
<glyph unicode="]" horiz-adv-x="663" d="M102 0h504q-12 174 -19 355.5t-7 355.5q0 190 7 387.5t19 390.5h-504v-84h197q-16 -174 -24.5 -348t-8.5 -350q0 -160 8.5 -314.5t24.5 -306.5h-197v-86z" />
<glyph unicode="^" horiz-adv-x="575" d="M66 834q6 8 46 47t87 82t87 76.5t46 33.5q8 0 45 -28.5t78 -64.5t72.5 -70t31.5 -42t-18.5 -22.5t-43 -29.5t-46 -26.5t-27.5 -11.5q-16 0 -39 21.5t-53 50.5q-27 29 -49.5 50.5t-26.5 21.5q-2 -2 -14.5 -17.5t-32 -40t-33.5 -43.5q-10 -10 -17 -19t-14 -16z" />
<glyph unicode="_" horiz-adv-x="1208" d="M74 23h1100v-56h-1100v56z" />
<glyph unicode="`" horiz-adv-x="393" d="M27 1288q4 4 12 11.5t18 17.5v-2q14 12 34 30.5t40.5 36t37.5 30.5t28 13q23 0 25.5 -5t2.5 -36q0 -8 4 -36.5t9 -69.5q2 -23 6 -49v2q6 -31 13 -76t12 -88t6 -74.5t-5 -38.5l4 2q-6 -4 -14 -4q-20 0 -24.5 3t-10.5 24z" />
<glyph unicode="a" horiz-adv-x="1572" d="M31 59q0 -51 112 -51h60q49 0 60 12.5t22 53.5v2q0 4 2 8q12 37 37 80l8 14v-2l153 301q94 20 209 21h43q23 0 45 -2l326 -21l127 -295l10 -20q12 -29 21.5 -52.5t9.5 -46.5q0 -8 -4 -20t-15 -31q57 -20 89 -20q47 0 101 17.5t89 27.5h-2q6 0 26.5 8t24.5 10 q-4 4 -21.5 30t-42 65.5t-54 87t-54.5 94.5q-33 57 -62.5 113.5t-53 101.5t-38 74.5t-16.5 35.5q-39 74 -67 144q-16 37 -33 73.5t-33 71.5q-8 16 -14 33.5t-15 34.5q-29 66 -53 128t-41 105q-14 18 -19 42t-5 46q0 8 1 15.5t5 23.5h-29q-14 0 -46 -13t-71 -28 q-35 -16 -64.5 -27.5t-35.5 -11.5q-16 0 -22.5 -20.5t-10.5 -50.5q-2 -8 -2 -17q0 -8 -2 -18q0 -14 -15.5 -44t-25.5 -52l2 2l-10 -19l-254 -430q-63 -6 -87 -44t-24 -73q0 -31 13 -45l-62 -102q-20 -37 -42.5 -76t-44 -74.5t-40 -64.5t-30.5 -41q-35 -35 -35 -64zM549 621 l276 456q43 -59 79 -127.5t65 -142.5l80 -197q-50 -12 -156 -12h-39q-18 0 -41 2z" />
<glyph unicode="b" horiz-adv-x="1470" d="M20 -39q0 -18 29 -39q41 29 78 39t66 10q25 0 41 -3t20 -5l4 29v-31h4h45h82t90 -1t74 -1v-18q10 -2 25 -2h30h60q104 0 224 6t238 16q199 98 283 199.5t84 228.5q0 29 -4 56.5t-10 56.5q-14 51 -62.5 108.5t-127.5 109.5t-186.5 95t-240.5 66q45 25 104.5 61.5t113 80.5 t91 89t37.5 84q0 59 -33.5 101t-92 71t-136.5 45.5t-168 26.5q-31 2 -66.5 4t-71.5 4t-69.5 3t-58.5 1q-74 0 -133 -6t-96 -10q-4 -2 -11 -2q-98 -12 -144 -43t-46 -56q0 -18 17.5 -32.5t50.5 -14.5q4 0 7 -38t3 -97l8 -1006q0 -25 -6 -36t-12 -15q-12 -12 -43 -33 q-31 -23 -61 -49t-30 -53zM383 1081q0 41 2 75t6 61q4 18 12.5 33.5t18.5 27.5q2 4 2 2t4 8l152 12q16 0 34.5 1.5t36.5 1.5q59 0 116.5 -3.5t104 -12.5t75 -23.5t32.5 -36.5q2 -4 3 -8.5t3 -8.5q2 -6 4 -11t2 -9l-4 -4q-20 -37 -62 -74t-98.5 -74t-119 -69.5t-123 -60 t-111.5 -47t-82 -30.5q0 10 -1 22.5t-1 27.5q-2 43 -4 95t-2 105zM391 649q29 10 66 27t78 35q39 16 70.5 30.5t47.5 16.5q6 0 13.5 1t15.5 1q66 0 152 -21.5t168.5 -58.5t148.5 -88t90 -109q14 -39 14 -71q0 -59 -32.5 -116.5t-87 -105t-124 -80t-141.5 -42.5h-4 q-14 -2 -29.5 -3.5t-35.5 -1.5h-76t-76 3q-27 0 -48 1t-38 1h-39q-27 0 -54.5 1t-49 2t-21.5 3z" />
<glyph unicode="c" horiz-adv-x="1605" d="M27 616q0 -92 11 -176t43 -156.5t88 -131t145 -100.5t216 -64.5t301 -22.5q88 0 162 11.5t135.5 30t113.5 41t99 44.5q8 4 18.5 8t18.5 6q70 43 108 67t58.5 38t28.5 23.5t18 21.5q29 78 29 106q0 31 -11.5 40.5t-23.5 17.5q-4 4 -9 5t-5 5q-16 16 -42 25.5t-44 9.5 q-23 0 -33 -16v2q-12 -23 -30.5 -42.5t-35.5 -37.5q-6 -8 -12 -15.5t-10 -11.5q-33 -35 -87 -70.5t-114.5 -66.5t-121 -53.5t-105.5 -28.5q-47 -8 -100 -8q-74 0 -140.5 13t-122 31.5t-94.5 39.5t-57 35q-45 35 -74 76.5t-45 85.5t-22.5 87t-6.5 84v21q0 12 2 24 q2 45 9.5 91.5t16.5 83t19.5 63.5t16.5 37q39 70 84 122t80 79q90 74 181 103.5t177 29.5q111 0 208 -31t167 -59q10 -4 12 -5.5t29 -11.5h-2q8 -4 16 -6t17 -6q37 -20 73 -21q33 0 62 23h-2q14 10 24.5 18.5t18.5 14.5l-2 -2q16 10 25.5 17t9.5 22q0 16 -13.5 26t-36.5 29 q-12 0 -34.5 9t-51.5 24q-41 20 -88 39.5t-88 29.5q-135 35 -250 35h-6q-10 2 -28 2h-41q-53 0 -132 -10t-172.5 -46t-197 -103.5t-201.5 -182.5h2q-37 -41 -65.5 -102.5t-48 -123t-28.5 -113.5t-9 -73z" />
<glyph unicode="d" horiz-adv-x="1691" d="M23 10q0 -23 18 -33q0 -8 3 -9t17 -1h5v41q98 0 118.5 -2t-26.5 -16h18q4 0 10.5 1t12.5 1q10 2 18 2h21h73q16 0 27 -2q68 -6 157 -12.5t179 -6.5q96 0 201.5 30t209 82t200.5 123t177 154q61 61 107.5 128t78 132.5t48 127t16.5 114.5q0 72 -21.5 130.5t-59.5 104.5 t-90 82t-111 64q-86 39 -183.5 61.5t-186.5 34t-164 14.5t-114 3h-61q-14 0 -28.5 1t-30.5 1q-119 0 -254 -6q-12 -2 -22.5 -3t-20.5 -1q-4 0 -10.5 -1t-10.5 -1q-20 -4 -29 -5q-35 -4 -59.5 -8t-46.5 -8q-74 -12 -102.5 -34.5t-28.5 -47.5q0 -20 8 -26q6 -14 29 -29v-2 q12 -10 20 -15.5t17 -15.5q4 -4 16 -29.5t12 -76.5q0 -45 6 -109q4 -41 6.5 -84t2.5 -88v-39v-18t-2 -19q-8 -88 -15.5 -171t-12.5 -151.5t-9 -117.5t-4 -70q-2 -6 -15.5 -16t-54.5 -35h22q-39 -37 -60 -71.5t-21 -51.5zM45 -25l2 -2zM80 -31q2 0 3 1t3 1q-4 0 -6 -2z M92 -27q23 4 38 8.5t28 8.5h-2q-8 0 -39 -10l2 2q-10 -4 -27 -9zM395 141l13 488q-6 63 -7 116q0 35 1 71t6 83q4 53 7 114.5t5 143.5q0 10 12 15.5t30.5 8.5t37.5 3h35q-2 4 23.5 5t66.5 1q55 0 118.5 1t110.5 5q10 -2 22.5 -3t22.5 -3q4 0 9 -1t10 -1q2 0 5 -1t7 -1 q55 -8 118.5 -17.5t127.5 -31.5q57 -23 111 -50.5t96 -60.5t67 -69.5t25 -75.5v-11q4 -10 4 -36q0 -66 -56.5 -162.5t-154.5 -200.5q-55 -61 -127 -120.5t-149 -105.5t-154.5 -75t-147.5 -29h-295z" />
<glyph unicode="e" horiz-adv-x="1456" d="M33 1323q0 -18 11 -30.5t28 -22.5q10 -8 19 -17.5t13 -19.5q10 -41 12.5 -97.5t2.5 -115.5v-78q2 -14 2 -27q0 -10 2 -22q4 -72 7 -128t3 -122v-108l-4 -365v-29q0 -2 -4 -6q-8 -10 -16 -24l2 2q-16 -27 -26.5 -47.5t-10.5 -36.5q0 -61 80 -62q8 0 16 1t18 1q10 2 21 2 h27h22q27 -2 57 -2h66h133q41 0 78 1t67 1h121q63 0 169 4.5t208 14.5q14 2 25 2h22q41 0 71 -5t48 -10q8 -2 13 -4t16 -2h10q18 6 35.5 19.5t34 29t31 31t24.5 25.5l12 14q12 16 20.5 25.5t18.5 19.5q16 16 26.5 28.5t14.5 24.5l-2 -4q6 16 8 25.5t2 17.5q0 35 -35 35 q-23 0 -59 -14q-10 -4 -53 -17.5t-99 -27.5q-47 -14 -121.5 -17.5t-142.5 -7.5q-25 -2 -49 -2q-23 0 -41 -2q-47 -6 -110.5 -9t-128.5 -3h-84l-299 4q-4 0 -6.5 -1t-6.5 -1v63q0 16 -1 40t-1 55q-4 41 -6 90t-2 96q0 12 1 25.5t1 23.5q6 106 6 217q0 29 -1 60.5t-1 64.5 q0 -2 39 -3t102 -1q66 0 148 1t168 3h39q74 0 144.5 -7t127.5 -15q35 -4 64.5 -7.5t50.5 -3.5q33 0 45 11q23 20 34 32.5t19 20.5h-2q4 8 8 12q23 29 36 49.5t13 36.5q0 25 -17 34t-54 13q-35 2 -91.5 3t-129.5 1q-68 0 -148 -1t-166 -3h-20h-92t-91 -2q-41 -2 -77 -2h-70 q-23 0 -45.5 -1t-42.5 3q-4 12 -6 43t-2 62q0 29 4 46t14 17l420 2q61 0 122.5 -6t108.5 -12q49 -6 80 -6h17q55 12 108 53q20 14 26.5 22.5t12.5 18.5l-2 -2q4 4 7 9t12 13q34 40 34 66q0 43 -47 45h-30q-23 0 -61 -3t-64 -11q-29 0 -88.5 -1t-141.5 -4q-78 -2 -171 -4 t-188 -3t-189.5 -2t-176.5 -1q-41 0 -60.5 -20.5t-29.5 -38.5v4q2 0 -2 -4q-14 -18 -14 -33z" />
<glyph unicode="f" horiz-adv-x="1335" d="M37 1315q0 -25 15.5 -42.5t33.5 -31.5q23 -18 35 -37q12 -41 14 -104.5t2 -177.5q2 -23 2 -41t2 -35q2 -31 4 -60.5t2 -76.5v-533q0 -8 1.5 -14t1.5 -12q0 -18 -5.5 -28.5t-13.5 -23.5q-6 -10 -12 -24q-6 -8 -12.5 -16.5t-10.5 -14.5q-14 -16 -25.5 -31.5t-11.5 -34.5 q10 -43 54 -43h14q16 4 30.5 7.5t28.5 7.5q53 12 103.5 22.5t72.5 10.5h15l12 12q12 14 19.5 28.5t7.5 36.5q-20 35 -29.5 80t-9.5 90v19q0 8 2 16q-6 125 -6 240q0 158 6 297v-2q2 16 2 32v33q31 8 95.5 13.5t150.5 5.5q53 0 112.5 -3t116.5 -10q61 0 116.5 -6t108.5 -10 l78 -8t80 -6q4 0 5 -1t5 -1q29 0 49.5 20.5t34.5 42.5q2 6 13 12q29 33 40 57.5t11 45.5v4q0 29 -14.5 41t-34.5 12q-18 0 -27 -6h-61h-80t-99 -2q-72 -2 -152.5 -3t-158.5 -1h-80q-37 0 -74 -2q-35 -2 -69 -2h-66q-29 0 -56.5 -1t-51.5 3q-2 14 -3 37.5t-1 52.5v37 q0 18 4 18l411 2q59 0 120 -6t108 -12h-2q23 -4 44 -5t38 -1h18q31 6 56.5 20.5t52.5 30.5q23 14 28.5 20.5t12.5 16.5l-3 -2q2 4 6.5 11t14.5 17q16 16 26.5 34t10.5 38q0 49 -60 53h-6q-6 0 -22.5 -8t-34.5 -18.5t-33.5 -20.5t-19.5 -14l-4 37q-41 -10 -116 -16.5 t-153 -10.5q-8 0 -13 -1t-11 -1h-31q-10 0 -21.5 -1t-23.5 -1h-166q-16 -2 -31.5 -3t-31.5 -1q-29 0 -63 2l-68 4l-82 4t-86 2q-47 0 -92.5 -3t-86.5 -11q-23 -23 -22 -45z" />
<glyph unicode="g" horiz-adv-x="1585" d="M39 653q0 -66 15.5 -138.5t49 -145t85 -142t124.5 -131.5q37 -31 76 -55.5t84 -41.5t100.5 -26.5t124.5 -9.5h60t63 4q12 0 53 7.5t101.5 19.5t134.5 30.5t150 45.5v-2q39 12 62.5 20t49 22.5t61 38t101.5 66.5l-2 -2q35 18 46 47t11 80q0 23 -1 49.5t-3 59.5q0 10 -1 22 t-1 23q2 47 6 84.5t8 70.5q6 55 7 92q0 23 -2.5 37.5t-12.5 24.5q-25 33 -98 33q-27 0 -59.5 -3.5t-77.5 -7.5q-14 -2 -29 -2h-25q-63 0 -106 23q-8 0 -22.5 -9.5t-29 -24.5t-24.5 -33.5t-10 -37.5q0 -43 45 -65q10 -4 19.5 -6t17.5 -2h100q4 -4 12.5 -5t16.5 -1 q10 0 22.5 -4.5t12.5 -26.5q0 -23 1 -45.5t3 -42.5q2 -23 2 -41v-35q0 -8 -1 -14.5t-1 -12.5q-2 -10 -2 -22v-27v-35q0 -18 4 -41v-2q0 -23 -30 -46t-84 -48.5t-128 -51.5t-162 -48q-10 -2 -21 -3t-22 -1q-10 0 -17 1t-15 1q-14 2 -29 2h-27h-10q-45 0 -92 13t-85 29.5 t-64.5 33t-30.5 20.5q-55 35 -106.5 91t-82.5 116q-14 25 -28.5 59.5t-25.5 75.5t-18.5 86t-7.5 88v51q8 88 60.5 169t123 145.5t147.5 109.5t136 62q59 18 121 28.5t121 10.5q92 0 172 -25t135 -78q31 -18 78 -18q23 0 46.5 3t47.5 7q49 12 87 35.5t38 54.5q0 20 -26 43 q-37 27 -95.5 50.5t-132 40t-162 26.5t-186.5 10q-229 0 -398 -64.5t-298 -187.5q-59 -59 -106.5 -128.5t-79 -142.5t-48 -144.5t-16.5 -135.5z" />
<glyph unicode="h" horiz-adv-x="1499" d="M98 -12q8 -31 21.5 -40t34.5 -9q10 0 15 1t13 3q10 2 20.5 4t22.5 4q16 10 32.5 16t33.5 13q35 10 51 18q2 2 4 3t4 3l-2 -4q27 16 46.5 30.5t19.5 45.5q0 6 -1 14t-5 19v-3q-6 23 -7.5 76.5t-1.5 151.5v164q0 10 1 20t1 23q2 14 2 28v31v59q0 20 63.5 25.5t170.5 5.5 h237q16 0 34 1t34 1h105q76 0 124 -3t48 -19q0 -43 -1 -95.5t-4 -89.5v2q-4 -57 -6 -103t-6 -88t-10 -83t-14 -86q-4 -29 -6.5 -40t-8.5 -50v-8q0 -2 1 -4t1 -5q0 -20 12.5 -32.5t26.5 -16.5v-4l33 -6l3 6l3 6q16 2 29.5 7.5t27.5 13.5h-2q4 2 7.5 3t7.5 3q8 4 15 7t15 3 q72 16 111 51q29 29 29 70q0 23 -10 64q-4 23 -10.5 78t-10.5 126q-8 74 -10 138.5t-2 124.5q0 68 2 134t6 140q2 16 2 35q0 20 2 41q0 41 2 81t6 80.5t6 82.5t2 83q0 12 -1 25.5t-1 26.5q0 45 -65 45q-37 -4 -89 -17.5t-89 -34.5q-18 -12 -31.5 -25t-13.5 -30q0 -8 4 -16 q4 -16 8 -34.5t8 -31.5q2 -6 3 -14t3 -14q10 -57 11.5 -112.5t1.5 -113.5v-71v-39q0 -18 2 -35q-4 -25 -73 -32t-177 -7h-82h-43q-23 0 -45 -2h2q-10 0 -26.5 1t-35.5 1q-16 0 -35.5 -1t-41.5 -1q-33 -2 -66 -2h-66q-29 0 -56.5 1t-49.5 5q-16 2 -20.5 6t-4.5 8v13 q0 8 -2 16v68t1 47t3 36.5t5 36.5q2 10 3 21.5t3 28.5v2q2 55 5 97t6 72.5t6 54t7 46.5q0 14 2 18q2 6 4 16.5t4 18.5q-23 29 -61 29q-43 -6 -85 -22.5t-73 -45.5q-20 -4 -26 -6q-29 -8 -44.5 -14t-22.5 -13.5t-8 -20.5t-1 -38v-8q20 -59 24.5 -123.5t6.5 -138.5 q4 -55 5 -104.5t1 -100.5v-57v-29q0 -12 -2 -29q-2 -29 -3 -63.5t-3 -71.5v2q-2 -23 -2 -45v-45q0 -23 -1 -45t-4 -47q-10 -92 -12 -145v2q-4 -47 -6 -82t-16 -76l6 -4l-10 -31q-4 -14 -7.5 -30.5t-3.5 -26.5zM229 1378v2h2q-2 0 -2 -2z" />
<glyph unicode="i" horiz-adv-x="452" d="M106 14q0 -16 12.5 -31.5t41.5 -15.5q20 0 39 6q29 10 57.5 26.5t50.5 33.5h-2l12 4h-2q66 18 86.5 30.5t20.5 38.5q0 2 -1 8.5t-3 16.5q-2 6 -4 18.5t-4 32.5q-10 199 -14.5 348.5t-4.5 278.5t4 243.5t15 247.5q4 53 11 87t11 47v6q0 29 -41 28q-18 0 -51 -10t-68 -37v2 q-16 -10 -30.5 -19t-28.5 -15q-39 -20 -57 -37q-2 -2 -4 -3t-5 -3l5 2q-16 -10 -25.5 -18.5t-9.5 -24.5q0 -4 1 -10.5t5 -12.5v2q0 -4 10 -14q4 -4 7 -10.5t10 -14.5q0 -4 1 -13t3 -30q0 -4 1 -9t1 -9v-39q0 -18 2 -29v-934q-2 -4 -2 -14q-4 -25 -12.5 -59.5t-30.5 -71.5 q-6 -8 -7 -23z" />
<glyph unicode="j" horiz-adv-x="966" d="M-2 39q0 -14 4 -23v4v-4q10 -27 15.5 -29.5t31.5 -6.5q4 0 9 -1.5t10 -1.5q16 -2 46.5 -11t65.5 -19t65.5 -21.5t47.5 -17.5q66 -23 141.5 -38t145.5 -15q55 0 92 12q78 20 129 111.5t65 285.5q14 143 20.5 261t6.5 214q0 35 -1 68t-3 59v351q6 49 6 65v25q0 2 1 8t3 22 q2 2 3 5.5t3 7.5q6 12 9.5 20t3.5 19q0 10 -15 45q-10 18 -29 18q-18 0 -28 -8h-6q-33 -6 -81 -32t-85 -48h2l-76 -33q-72 -55 -72 -86q0 -16 11 -22l24 -19q10 -10 22.5 -20t18.5 -21q23 -31 26 -86t5 -151q0 -35 1 -75t3 -87q2 -37 3 -77t1 -85q0 -66 -2 -141.5t-6 -165.5 q0 -18 -7 -61.5t-21.5 -86.5t-36 -75.5t-48.5 -32.5q-43 4 -86 24.5t-78 57.5q-39 45 -64.5 67.5t-55.5 22.5q-25 0 -52 -14q-4 -2 -11 -8.5t-13 -10.5q-18 -14 -43 -32.5t-53 -28.5q-33 -18 -50.5 -36t-17.5 -42z" />
<glyph unicode="k" horiz-adv-x="1548" d="M88 20q0 -53 55 -53q41 10 78 18.5t72 18.5l72 19q53 18 53 45q0 10 -1 18t-3 18q-2 29 -5 63t-5.5 66.5t-4.5 60.5t-2 44q0 86 1 133t2 71.5t2 33t4 14.5v6q10 0 28.5 -9t35.5 -20.5t30.5 -21.5t13.5 -13q16 -14 36.5 -28.5t35.5 -24.5q47 -35 100 -74.5t131 -105.5 q61 -47 137 -103.5t150 -106.5t137.5 -85t97.5 -41q18 -12 39 -12q20 0 34.5 7t33.5 17q10 6 23.5 12.5t25.5 10.5q6 4 15.5 7t15.5 7q25 10 48 19.5t34 19.5q4 8 7 15.5t3 13.5q0 14 -15.5 26.5t-56.5 26.5q-53 12 -122.5 47t-149.5 83t-165 107.5t-166 121t-153.5 122 t-127.5 111.5q41 27 101 71t123.5 95t122 101t95.5 87q111 100 189.5 191.5t123.5 150.5h19v27q4 8 9 14t9 13q-4 -2 -10 -2q-4 0 -8 -3v25l-35 -35q-41 -12 -83 -26.5t-79 -28.5q-29 -10 -57.5 -19.5t-55.5 -17.5q-20 -29 -32.5 -46t-16.5 -28l2 2q2 6 2 4t-3 -8t-6 -14 t-5 -14q-2 -14 -6 -21q-12 -35 -50 -71.5t-75 -69.5q-10 -6 -17.5 -13.5t-15.5 -13.5q-76 -66 -149.5 -119t-114.5 -82q-18 -10 -35.5 -18t-34.5 -18q-41 -23 -80.5 -43.5t-78.5 -30.5q2 41 3 88t3 98q4 104 6 207t12 172q0 4 1 7t1 7v-2q4 14 7 23.5t3 34.5q0 20 -11 32.5 t-58 12.5q-43 -4 -89 -23.5t-89 -44.5h2q-6 -4 -10.5 -6t-10.5 -6q-18 -10 -33.5 -19.5t-25.5 -23.5q-8 -16 -8 -35q0 -14 10 -41q0 -6 2 -8q2 -55 4 -104.5t4 -95.5t2 -95v-102v-166q-10 -98 -12 -187.5t-6 -175.5q-2 -53 -2 -104t-4 -105q-8 -20 -15.5 -42.5t-7.5 -39.5z M406 596v2q2 0 2 2q0 -2 -2 -2v-2z" />
<glyph unicode="l" horiz-adv-x="1466" d="M70 -6q0 -10 6 -17.5t22 -7.5q14 0 40 5.5t55 13.5q61 12 118 12h940q10 -2 21 -2h20q35 0 70 10q53 29 74 84q4 8 16 30.5t12 47.5q0 14 -3 19.5t-21 5.5q-35 0 -58.5 -5.5t-64.5 -17.5q-16 -4 -35.5 -9t-44.5 -13h4q-61 -4 -93 -9.5t-54 -9.5q-16 -4 -33 -6t-38.5 -4 t-51 -3t-72.5 -3l-242 4h2l-133 18q-25 4 -31 22.5t-6 41.5v51q-2 16 -5 53t-5 79t-3 78t-1 52q0 53 -1 97t-1 81v180q0 59 4 111.5t21 130.5q0 23 5 71t11 101q4 43 7 80t3 49v12q0 29 -10 40.5t-33 11.5q-16 0 -38.5 -8.5t-51.5 -18.5q-18 -10 -43 -18q-16 -8 -46 -16.5 t-58 -16.5h2q-18 -4 -38 -10.5t-34 -10.5q-23 -10 -44 -25.5t-21 -31.5q0 -18 16 -29q55 -37 76.5 -120.5t29.5 -178.5q4 -55 6.5 -115.5t2.5 -125.5v-56q0 -27 -2 -55l-19 -450q0 -20 -18.5 -51t-32.5 -46l-23 -22q-10 -10 -20 -20.5t-14 -18.5q-20 -10 -30.5 -22.5 t-10.5 -18.5z" />
<glyph unicode="m" horiz-adv-x="2025" d="M72 18q0 -12 22.5 -26.5t50.5 -14.5q4 0 7.5 1.5t7.5 1.5q12 2 24.5 3t22.5 3q57 8 98 16t55 31q14 18 17.5 41.5t3.5 52.5v35q0 18 4 39q4 33 13.5 84t22.5 106t27.5 108.5t30.5 92.5q2 25 11.5 64.5t20.5 78.5t21.5 71t14.5 42v-2q8 27 18 49q23 51 23 55 q10 -12 33.5 -66.5t76.5 -189.5q10 -27 23.5 -57.5t28.5 -65.5v2q33 -92 56 -156.5t40.5 -109.5t30 -77.5t24.5 -61.5t25.5 -58.5t31.5 -70.5v2q6 -20 42 -28.5t61 -8.5h29q41 0 62.5 43t51.5 121q6 16 13.5 33.5t15.5 38.5l-12 -9q14 16 44.5 81t77.5 165q41 96 94.5 212 t106.5 233q0 -4 4 -25q20 -61 39 -133t39 -148q16 -59 32.5 -120.5t33.5 -120.5q10 -31 21 -75t24 -87q10 -37 18 -68.5t12 -44.5l-2 2q2 -10 2 -18v-18v-29q0 -12 5 -23v6q2 -6 22.5 -16t48.5 -10h92q41 2 64.5 3t38.5 3q12 4 21 9t9 20q0 14 -8 22t-18 27q-4 6 -17 22 q-39 51 -53 90q-35 102 -70.5 230.5t-70.5 253.5q-25 86 -41 156.5t-31 138.5q-4 10 -5 21t-5 24q-2 12 -3 21t-3 20q-10 47 -20.5 96t-24.5 100v-6q0 4 -1 9.5t-1 9.5q-4 29 -13.5 63.5t-19.5 50.5q-25 35 -70 35q-23 0 -39 -8h2q-16 -4 -34.5 -16.5t-36.5 -34.5 q-16 -35 -42 -97.5t-48 -121.5q-6 -16 -29 -65.5t-51 -111.5q-23 -47 -44.5 -93t-37.5 -87q-23 -47 -44.5 -95t-43.5 -95q-20 -41 -41 -85t-41 -87q-39 84 -73 165t-66.5 162.5t-66.5 169.5t-71 187q-12 29 -24 58.5t-23 62.5q-8 18 -13 35.5t-11 33.5v-2q-4 12 -11.5 30.5 t-15.5 35.5q-27 53 -61 53h-9q-68 -10 -106.5 -28.5t-60.5 -37.5q-20 -14 -26.5 -30.5t-12.5 -36.5l2 2q2 4 -2 -10.5t-9 -22.5q-4 -16 -7 -39.5t-7 -54.5q-2 -14 -4 -30t-6 -32q-14 -76 -41 -184t-70 -266q-12 -37 -23.5 -79t-23.5 -89q-20 -66 -39.5 -138.5t-42.5 -144.5 l2 2q-23 -43 -34 -66.5t-17 -38.5t-10 -27.5t-8 -30.5v-7z" />
<glyph unicode="n" horiz-adv-x="1607" d="M82 -6q0 -16 9 -23.5t20 -7.5h6q10 6 21.5 7t23.5 3q10 0 16 1t12 3q16 4 29.5 6.5t24.5 4.5q14 4 28.5 5t30.5 9l-2 -2q14 6 35 23q10 10 14 17t4 21v13q0 8 -2 14l-6 29q-2 25 -4 57.5t-3 64t-2 61.5t-1 48v70v125v182q-4 23 -4 41v39v47q0 23 2 49q0 16 1 34.5t1 41.5 q0 31 2 31h6q18 -8 53 -39t91.5 -87.5t138.5 -140.5t192 -198q61 -57 116.5 -113.5t108.5 -116.5q55 -59 111.5 -119.5t122.5 -117.5q18 -23 27.5 -32t21.5 -15q6 -4 12.5 -9.5t16.5 -15.5q29 -20 59 -20q41 0 74 27.5t43 49.5q10 27 13 46.5t3 42.5v57v51t-2 94q0 39 -1 83 t-2 83t-2 69.5t-1 47.5q0 82 1 145.5t3 116.5q2 39 3 76t1 74q2 23 6.5 67.5t7.5 96t7 101.5t6 85l-12 10q-8 16 -25 16q-8 0 -14 -4l2 2q-37 -10 -85 -30.5t-85 -38.5q-12 -6 -18.5 -18.5t-10.5 -22.5q-2 -4 -7 -13l-5 -10q4 -31 10 -66.5t10 -72.5q10 -66 12.5 -98.5 t4.5 -63.5q0 -16 1 -29.5t3 -29.5v-35q0 -18 2 -39q2 -47 4 -101.5t2 -107.5q0 -14 -2 -54t-5 -88t-7 -95.5t-9 -75.5q-41 25 -76.5 55.5t-70.5 67.5q-18 16 -35.5 32.5t-38.5 34.5q-43 37 -84 84t-80 90q-6 6 -11 12.5t-9 12.5q-35 31 -86 88t-108.5 126t-117 142.5 t-110.5 138t-89 113.5t-50 70q-4 0 -6 2q-4 8 -11.5 15t-21.5 7q-2 0 -3 -1t-3 -1q-25 -8 -46.5 -16t-37.5 -16q-6 -4 -12.5 -5.5t-12.5 -5.5q-31 -16 -68.5 -39.5t-39.5 -50.5v2q-2 -8 -2 -47q0 -27 1 -57.5t1 -61.5q2 -31 3 -56.5t1 -41.5q4 -63 5 -149t1 -185v-133 q-2 -98 -3 -153.5t-3 -83.5q0 -16 -1 -24.5t-1 -14.5v-11q2 -4 2 -12v-12q0 -27 -5.5 -64t-13.5 -73q-4 -20 -7 -39t-5 -35q0 -2 -1 -4t-1 -6v2q-2 -10 -2 -19v-16z" />
<glyph unicode="o" horiz-adv-x="1765" d="M70 629q0 -141 45 -264t140 -214.5t242.5 -143.5t352.5 -52q57 0 127 8t138.5 23.5t132 38t110.5 53.5q84 59 153.5 146t118.5 187.5t77 205t28 200.5v31l-6 35v-2q-6 59 -20.5 115.5t-55.5 115.5q-45 61 -110.5 116.5t-155 98.5t-203 70.5t-256.5 36.5h-2 q-31 0 -107 -10.5t-170 -40t-197.5 -85t-187.5 -144.5t-139 -218t-55 -307zM266 702q0 29 9.5 81.5t33 111.5t65.5 121.5t106.5 114t155.5 83t216 31.5h10q137 0 248 -39t191.5 -89t129 -99t60.5 -70q23 -16 37 -52t24 -108v-6q0 -4 1 -5t1 -3q0 -51 -24.5 -135t-70.5 -168 t-111.5 -152.5t-145.5 -87.5q-61 -37 -131 -54t-164 -17q-12 0 -24.5 1t-24.5 1q-53 0 -117 12q-57 12 -139 44t-156.5 93.5t-127 156.5t-52.5 234zM831 696q0 25 16.5 38.5t37.5 13.5q23 0 39 -13.5t16 -38.5q0 -27 -16.5 -39t-38.5 -12q-20 0 -37 12.5t-17 38.5z" />
<glyph unicode="p" horiz-adv-x="1363" d="M59 0q25 27 29 27v2q0 4 -1 5t-1 5q0 10 4 19.5t19 15.5q16 6 30.5 13t18.5 15l-2 -2q6 29 10 71t7 91t5 102.5t2 106.5v55q0 27 -2 56q-2 23 -2 47v45v57q0 29 2 55v-2q0 23 1 42.5t1 41.5q0 18 -1 39t-1 43q-4 51 -4 86t-2 60q0 16 -1 28.5t-1 18.5q-4 16 -5 34.5 t-3 32.5q-2 23 -4 41.5t-6 30.5v-2q-12 14 -25 25l2 -2q-12 4 -21.5 13t-9.5 27v5q0 37 44 50t100 13q20 0 39.5 -1t35.5 -3q16 2 39 2h58q78 0 184.5 -6t208.5 -18.5t187 -31t120 -42.5q59 -25 105.5 -66t77 -92t47 -109.5t16.5 -115.5v-23q0 -10 -2 -20q0 -8 -7.5 -27.5 t-18.5 -41t-24.5 -43t-27.5 -32.5h2q-33 -31 -86 -71.5t-128 -79.5t-171 -65.5t-215 -26.5q-16 0 -32.5 -1t-33.5 1h-14q-27 0 -48.5 5t-49.5 9q-27 4 -51.5 8t-38.5 4h-2q-4 -16 -4 -41v-49q0 -41 2 -88t5 -92t9 -84t12 -64q4 -16 22.5 -21t28.5 -5h39l-12 -80 q-47 0 -61.5 6t-16.5 14q0 -12 -12 -12q-20 0 -57 -1t-80 -3q-25 0 -56.5 -1t-64.5 -2t-62 -1h-45zM395 1016l2 -62q0 -31 1 -54t1 -40q0 -23 1 -37t1 -28v-105q4 -2 10.5 -4t14.5 -6l-2 2q41 -10 94 -25.5t100 -19.5q10 -2 17 -2h16q39 0 82 6t84 17.5t78 24.5t66 30 q98 47 147 111.5t49 129.5q0 106 -123 211q-27 20 -86 39t-134 33t-157 22.5t-151 8.5h-45q-23 0 -43 -4q-8 -4 -15 -23q-6 -12 -7 -42t-1 -64v-119z" />
<glyph unicode="q" horiz-adv-x="1806" d="M98 623q0 -141 45 -264t140.5 -214.5t243 -143.5t352.5 -52q16 0 20 -2q4 0 8 -1t8 -1h21q2 0 18 6q2 0 5.5 1t7.5 1q-2 0 -3 1l-1 1q2 0 4 -2q76 -29 165 -63.5t179 -63.5t175 -48.5t152 -19.5q8 0 17.5 1t17.5 1q70 6 115 11.5t73.5 10.5t48 9t40.5 10h-2 q12 2 30.5 10.5t37 17.5t33.5 18.5t19 13.5q4 6 6 12l3 6q0 18 -19.5 26.5t-48.5 8.5q-41 0 -92 -7t-86 -11q-14 -2 -29 -2q-14 0 -16 -3q-6 0 -31.5 1.5t-58.5 3.5t-67 5t-58 9q-63 14 -108.5 27.5t-76 26.5t-51 25.5t-35.5 22.5q-4 4 -8 5t-8 3q49 25 59.5 29t20.5 8 t27 15q86 59 155.5 146t118.5 187.5t76.5 207t27.5 202.5v29q-2 8 -2 16t-2 17q-10 59 -23 115.5t-54 117.5q-45 61 -111 116.5t-156 98.5t-204.5 70.5t-258.5 36.5h-2q-31 0 -105.5 -10.5t-169.5 -40t-198.5 -85t-188.5 -145.5t-140.5 -220t-55.5 -308zM276 698 q0 29 9.5 82.5t33 115.5t66.5 128t109.5 118t161 86t221.5 34h14q141 0 256 -40t197.5 -91.5t132 -102.5t61.5 -72q25 -18 41 -57t27 -111q0 -4 1 -8t1 -8q0 -51 -24.5 -138t-72 -174t-114 -158t-148.5 -91q-4 -2 -11 -3t-13 -5q-20 -10 -50 -23.5t-67 -17.5h-8 q-8 -2 -17 -2h-6q-29 6 -59.5 10t-54.5 4q-31 0 -51.5 -11t-22.5 -34q-2 0 -4 -1t-4 -1h-11q-12 0 -28.5 4t-32.5 8v-2q-14 4 -25.5 7t-15.5 6q-59 12 -143 45.5t-162 97t-132.5 163t-54.5 242.5zM1251 41q12 0 15 -6q-7 2 -15 6z" />
<glyph unicode="r" horiz-adv-x="1294" d="M84 1364q0 -14 3 -18.5t13 -10.5l9 -10l4 -2q8 -8 16 -17.5t23 -25.5q12 -20 16 -46t4 -42l6 -1086q0 -35 -7 -60.5t-17 -45.5h-2l-13 -25q-8 -14 -8 -24q0 -20 10 -23q4 -2 17 -2q6 0 39.5 10.5t75.5 24.5t82 30.5t59 26.5v15q4 10 4 16q0 27 -8 62v-2q0 2 -1 3t-1 3 v174q0 66 -2 112q0 29 -1.5 53.5t-1.5 53.5v39q0 23 3 51v10q0 8 2 15q23 4 41 6t32 6h-2q18 4 31.5 5t34.5 7h8q12 -14 26.5 -33.5t28.5 -35.5q10 -12 20.5 -23.5t20.5 -26.5q59 -72 129 -155.5t136.5 -162.5t124 -144.5t91.5 -102.5q12 -12 31 -12q33 14 49 24 q12 8 24.5 15.5t27.5 9.5q61 23 98 38t51 25q8 8 11 12.5t3 14.5q0 33 -96 41q-16 0 -33 8v-2q-41 25 -76.5 62t-97.5 104h2q-10 12 -22 23.5t-25 25.5l2 -2q-35 39 -80 94.5t-88 109.5t-78.5 99t-50.5 66q4 2 9.5 4t11.5 6q10 4 20.5 9t24.5 14q6 2 16 6t13 4 q31 10 51 19.5t41.5 21.5t46 33.5t61.5 56.5v-2l115 100q27 43 41 67.5t21.5 42t8.5 34t1 43.5q0 29 -7 53q-16 57 -78.5 91t-146.5 52.5t-178 24.5t-176 6q-23 -2 -47 -2h-60h-139q-74 0 -152.5 -1t-144.5 -5h-6q-10 -2 -22.5 -9.5t-22.5 -23.5zM401 743v525q53 8 96.5 13 t102.5 9q16 2 31 2q16 0 35 2q57 0 127.5 -4t133 -21.5t105.5 -50t43 -88.5q0 -29 -10 -57.5t-27 -54.5l2 4q-47 -47 -106.5 -95t-126.5 -77h2q-240 -88 -408 -107zM874 762h3h-3z" />
<glyph unicode="s" horiz-adv-x="1310" d="M-4 291q0 -33 21.5 -70t59.5 -70.5t88 -63.5t105 -46q88 -29 178.5 -42t145.5 -13q29 0 82 3t119.5 15t140.5 39t142.5 76t127 122.5t92.5 180.5q2 10 2 16q0 8 3 19q4 31 10 67.5t6 79.5t-8 84t-28.5 77t-57.5 64.5t-95 44.5l5 -4q-12 4 -53.5 10.5t-100.5 8.5h-37 q-47 0 -100 1t-107.5 4t-106.5 11t-98 21q-55 16 -99 43.5t-66 56.5l2 -2q-6 14 -10.5 26.5t-4.5 24.5q0 29 13 47q10 14 28.5 28.5t38 28t37.5 24.5t31 18q39 14 88 22t97 13.5t92 6.5t75 1q14 0 46 -5.5t66.5 -12.5t64.5 -15t42 -14q61 27 88 43t27 57v18t-4 25 q-29 4 -46.5 7t-34 5t-32.5 4t-41 6q-4 0 -9 1t-11 1h2q-18 2 -45 3.5t-60 1.5h-102q-174 0 -326.5 -45.5t-245.5 -131.5q-86 -82 -86 -188q0 -10 1.5 -20.5t3.5 -20.5q4 -31 17 -54.5t28.5 -41t31 -29.5t27.5 -20q45 -37 91 -58.5t86 -33t72 -14.5t52 -5q4 0 5 -1t5 -1 q18 -4 68.5 -8t114.5 -8q66 -4 131 -9.5t96 -11.5q72 -16 97.5 -69.5t25.5 -114.5q0 -43 -6 -82q-2 -14 -20.5 -64.5t-64.5 -105.5t-123 -99t-196 -44q-41 0 -114.5 8t-151.5 29.5t-144.5 60.5t-91.5 102q-4 4 -10 16.5t-12 26.5l-8 12l-4 7q-4 35 -13.5 47t-25.5 12 q-20 0 -43 -26.5t-43 -57.5q-8 -10 -17.5 -21.5t-15.5 -21.5v-12z" />
<glyph unicode="t" horiz-adv-x="1404" d="M-51 1313q0 -33 55 -33q18 0 42 2t50 4q29 4 59.5 6t55.5 2q53 0 111.5 -1t111.5 -3q35 -2 64.5 -3t54.5 -1q4 -53 13 -179t18 -284q2 -61 3 -124.5t1 -127.5q0 -119 -5 -231.5t-16 -206.5q-2 -12 -8 -36.5t-10 -43.5l2 4q-4 -6 -4 -14q-4 -16 -8 -23.5t-9 -11.5 q-10 -16 -10 -24q0 -10 6 -17q12 -16 37 -16q16 0 34.5 5t43.5 13q10 4 20.5 7.5t32.5 7.5q10 2 20.5 6t22.5 8l-2 -2q37 10 46.5 15t29.5 22l12 8t15 12q-6 25 -9.5 38t-4.5 25.5t-2 28t-3 43.5q0 4 -1 9.5t-1 13.5q-2 35 -6 101.5t-7 147.5t-5 169t-2 166q0 143 7 243.5 t11 159.5q0 4 1 10t1 11q4 27 9 43t10 26q2 2 12 2q8 0 16 -1t19 -1q16 0 31.5 -1t33.5 -1h37q20 0 46 1t54 1h95q10 0 17 1t17 1q59 0 102.5 -11t55.5 -15l21 4l55 61q39 45 57.5 68.5t18.5 40.5q0 25 -19.5 28.5t-54.5 3.5h-20q-10 -4 -49.5 -9t-88.5 -9t-98 -7t-80 -3 q-12 0 -23.5 -1t-21.5 -3h2q-4 0 -12 -1t-15 -1q-68 -6 -139 -6q-59 0 -121.5 2t-121.5 6q-53 2 -104.5 3t-96.5 1h-80q-14 0 -25.5 1t-23.5 3q-10 2 -21 2h-22q-8 0 -33 2t-51.5 4t-51 5t-32.5 5h-8q-14 0 -38 -12t-48.5 -32.5t-46 -47t-31.5 -53.5v-6z" />
<glyph unicode="u" horiz-adv-x="1669" d="M68 393q0 -66 23.5 -130t60 -120.5t82 -99.5t88.5 -63q92 -43 186 -59.5t147 -16.5h50q76 6 149.5 15t146 32.5t144.5 64.5t145 109l2 -2q2 0 4 -2v-2h2v-4q-4 -6 -4 -23q0 -12 1 -19t3 -16q2 -10 3.5 -26.5t3.5 -16.5q-2 -6 -2 -10t-3 -8q14 -33 27.5 -45t30.5 -12 q12 0 24.5 5t26.5 13h-2q4 2 11 4t12 4q16 6 29.5 12.5t17.5 8.5q41 16 71.5 34.5t30.5 45.5v10q-4 16 -11 31.5t-16 31.5q-10 20 -17 39t-9 43v635q2 121 7 192.5t11 111.5t13.5 58.5t15.5 34.5q6 10 8 25q2 4 4 11t4 11v-2q6 16 11.5 30.5t5.5 29.5q0 16 -8.5 28.5 t-32.5 12.5q-4 0 -8.5 -1t-8.5 -1q-16 -2 -39.5 -11.5t-48.5 -19.5q-10 -4 -21.5 -9t-23.5 -9q-10 -4 -21.5 -10.5t-33.5 -22.5q-6 -4 -13.5 -8t-17.5 -11q-12 -8 -16 -10q-16 -10 -28.5 -19.5t-12.5 -31.5q0 -16 12 -31q8 -12 14 -18q4 -4 6.5 -9.5t2.5 -17.5v-696 q0 -86 -49.5 -167t-176.5 -142q-14 -6 -30.5 -12.5t-42 -12.5t-63.5 -14.5t-93 -16.5h2q-10 -2 -24.5 -3t-30.5 -1q-90 0 -232 25q-41 8 -86 31.5t-84 58.5t-67.5 79t-40.5 93q-12 33 -13 129q0 68 9.5 157t34 184t68.5 188.5t112 164.5q12 14 16 22.5t6 14.5q0 2 6 8 q10 10 22.5 25.5t12.5 34.5q0 29 -41 47q-8 4 -22 4q-27 0 -57.5 -6t-55.5 -11q-16 -4 -20 -4q-12 -4 -19.5 -5t-19.5 -7h2q-6 -2 -10.5 -4t-32.5 -6q-39 -4 -52.5 -24.5t-13.5 -49.5q0 -20 2 -30.5t2 -18.5v-12q0 -37 -11 -73t-28 -83v2q-16 -41 -35.5 -92t-35.5 -115 q-2 -12 -4 -23.5t-5 -21.5q-8 -41 -15 -76.5t-11 -76.5t-7 -90.5t-3 -114.5q0 -4 -1 -11.5t-1 -13.5z" />
<glyph unicode="v" horiz-adv-x="1572" d="M-4 1268q2 -16 8 -25.5t23 -23.5q4 -4 7 -6.5t7 -6.5q66 -106 127 -215.5t120.5 -220.5t123 -221.5t129.5 -216.5l143 -232q8 -10 10 -19t6 -20v2q4 -12 9.5 -24t11.5 -27q8 -16 21.5 -35.5t43.5 -19.5q6 0 22.5 2t37 5t39 7t30.5 9v-3q41 12 55.5 30t28.5 52 q2 10 11.5 30t18.5 41.5t18.5 40.5t15.5 30q35 92 70.5 185t70.5 181q4 12 10.5 25.5t10.5 25.5q31 76 60.5 151t62.5 151q29 72 58.5 143.5t57.5 144.5q0 -4 4.5 2.5t10.5 17.5t12 25.5t12 24.5q10 16 19.5 33.5t19.5 44.5q4 4 5 9t1 9q0 23 -16 32t-43 9q-29 0 -71 -11 t-84 -28.5t-77.5 -39t-52.5 -44.5q8 -12 8 -18q0 -4 -1 -9t-1 -10q0 -8 -1 -18t-1 -23q0 -37 -30.5 -145t-90.5 -301q-49 -160 -96 -296t-119 -267h2h-2q-2 -2 -2 -4q0 2 2 4q-8 0 -12 -2q-18 29 -45 69.5t-52.5 83.5t-49 83t-35.5 65q-45 78 -85 151.5t-74 136t-60.5 113.5 t-42.5 84q-14 23 -23.5 33t-17.5 14l12 4q-10 14 -25.5 44t-30 63t-25.5 63.5t-13 49.5q-4 12 -8 31.5t-8.5 39t-7.5 36.5t-3 24q-4 20 -15 29.5t-26 9.5q-18 0 -42.5 -12.5t-65.5 -35.5q-4 -2 -10.5 -5t-10.5 -5q-43 -20 -71.5 -48t-28.5 -52v-4z" />
<glyph unicode="w" horiz-adv-x="2306" d="M72 1264q0 -12 6 -19q6 -16 11 -25.5t32 -48.5q4 -6 14 -20q20 -37 32.5 -58.5t22 -39t17.5 -36t22 -50.5q31 -76 74 -167t90 -186.5t93 -187.5t85 -167t67 -126t36 -63h-2q8 -16 13 -25.5t11 -19t16.5 -22.5t28.5 -36q4 -29 31 -28q8 0 22.5 11t28 27.5t23.5 35t10 34.5 q35 92 56.5 154.5t33.5 104.5t18.5 67.5t10.5 44.5q2 14 4 25.5t2 13.5h2q8 23 20.5 66.5t26.5 98t29.5 114t27.5 112.5v-2q2 4 3.5 11t2.5 23.5t1 49.5v88q0 -4 12 -19q29 -59 51.5 -138t44.5 -156q8 -25 15.5 -47.5t13.5 -45.5q27 -94 49.5 -164.5t50 -141t64.5 -152.5 t92 -197q12 -29 45 -29q16 0 31.5 8.5t25.5 26.5q10 16 23.5 42t25.5 50v-2q8 14 15.5 28.5t3.5 10.5q20 35 54 100.5t76 149.5t90 181.5t96 195.5t94.5 193.5t84.5 174.5q41 88 73 149.5t42 84.5v-2q14 25 19.5 44t5.5 34q0 29 -13.5 35t-29.5 6q-18 0 -25 -4q-4 0 -5 -1 t-5 -1q-18 -4 -50 -12.5t-65 -23t-56.5 -34t-23.5 -45.5v-12q0 -33 -15 -81t-41 -107.5t-59.5 -129t-70.5 -145.5q-6 -14 -13.5 -27.5t-13.5 -26.5q-31 -72 -53 -121t-41.5 -88.5t-38 -75.5t-41.5 -77q-10 -18 -21.5 -41l-23.5 -47q-2 0 -10 -4q-68 170 -112 313.5 t-83 284.5q-18 61 -35.5 122.5t-37.5 123.5q-8 14 -17.5 51t-9.5 55v2q2 6 2 17q0 57 -82 57h-18l-16 -3q-17 -3 -38.5 -8.5t-42 -10.5t-30.5 -7q-14 -6 -23.5 -18.5t-18.5 -34t-18.5 -55t-23.5 -84.5q-4 -18 -10.5 -39t-12.5 -45v2q-6 -27 -13 -55.5t-17 -71.5 q-8 -35 -18.5 -83t-27 -115.5t-41 -158t-57.5 -213.5l-6 -6q4 -4 8 -13t15 -26q-6 10 -11.5 19.5t-11.5 19.5q-4 -6 -4 -12q0 -4 -2 -10q2 6 -1 19.5t5 4.5q-74 129 -134.5 261.5t-104.5 238t-67 172.5l-24 68q-31 84 -42 128l-19 76q-4 18 -10.5 38t-20.5 59q-8 20 -31 20 q-18 0 -42.5 -12t-55.5 -29h2q-6 -4 -13 -7t-13 -7q-4 -2 -8.5 -4t-10.5 -6q-14 -6 -31.5 -15.5t-33 -20.5t-26.5 -24.5t-11 -27.5zM1583 322q2 -3 2 -7q-2 2 -2 7z" />
<glyph unicode="x" horiz-adv-x="1617" d="M76 -100q0 16 10 35.5t18 29.5q6 8 21.5 24.5t38.5 39.5q25 25 53.5 55.5t48.5 52.5q68 80 120 140.5t92 106.5t71 80t55 62q35 41 65.5 76t69.5 82q-10 10 -18 22.5t-19 28.5q-37 47 -77.5 102.5t-83.5 108.5t-86 103.5t-82 89.5q-35 31 -50.5 47t-25.5 26 q-10 12 -18.5 19.5t-18.5 17.5q-16 12 -16 33q0 23 19.5 36t41.5 23h-2q10 6 21 13l12 6l-6 -14l20 13q21 13 49.5 30.5t58 33t46.5 19.5q8 2 22 2q37 0 37 -33q0 2 -1 -6t-3 -12q-8 -23 -8 -43v-4q4 -27 18.5 -59t28.5 -52q25 -47 95.5 -151.5t187.5 -243.5q8 14 24 30v-2 q88 109 148.5 190t76.5 132v-2q2 10 13.5 28.5t23.5 36.5q8 10 13.5 15.5t9.5 25.5q2 2 2 9q0 4 -2 5t-4 5q-10 10 -10 22t5 16.5t15 12.5l-4 -2q23 18 55.5 29.5t67.5 21.5q23 6 47 12.5t33 10.5q35 16 84 32.5t73 16.5h11q39 0 39 -33q0 -29 -56 -92q-10 -12 -38.5 -45 t-57.5 -68q-16 -20 -30.5 -37.5t-24.5 -27.5l-78 -84q-70 -74 -146.5 -161t-181.5 -216q66 -86 137.5 -173t139 -166t128 -144.5t105.5 -108.5q14 -10 34.5 -26.5t31.5 -26.5q28 -17 28 -35q0 -25 -30.5 -38t-71.5 -26q-10 -14 -22.5 -23t-26.5 -20q-23 -16 -39 -32 q-23 -23 -47 -23q-20 0 -34.5 17.5t-23.5 62.5q-6 10 -22 40t-55 77q-10 41 -82 137q-59 74 -133 162t-152 168q-41 -47 -89 -104.5t-83 -100.5v2q-41 -61 -57.5 -82.5t-28.5 -34.5q-8 -8 -15.5 -17t-19.5 -28q-2 -2 -4 -5t-6 -7q-16 -23 -44 -56.5t-38 -56.5q-6 -16 -6 -22 q0 -12 2 -15q2 -8 4 -13t2 -9q0 -20 -24.5 -28.5t-59.5 -14.5q-27 -4 -55.5 -10.5t-50.5 -16.5q-18 -8 -43 -16t-48 -17v3q-18 -6 -35.5 -10.5t-29.5 -8.5q-10 -4 -19 -4q-18 0 -24 7t-6 22z" />
<glyph unicode="y" horiz-adv-x="1554" d="M66 1329q0 -18 5 -27.5t13 -21.5q14 -16 18 -27q6 -6 13 -14q16 -18 56 -62t99 -120q55 -68 118 -148t122 -158.5t108.5 -152.5t79.5 -129v2q2 -2 7 -22q0 -4 1 -6.5t1 -6.5q-4 -18 -5 -41v-47v-92q0 -25 1.5 -49.5t1.5 -48.5q0 -45 -9 -80q-6 -16 -8 -19q-6 -6 -11 -12 t-7 -14q-14 -8 -15 -27q0 -23 26 -35t56 -12h15q27 0 51 2t41 6h-2q25 6 47 6q12 0 24.5 -1t24.5 -1q10 -2 18 -2h21h18q10 0 21 2q39 6 39 31q0 14 -11 25q-4 4 -4 6v4q0 -2 -5 6t-9 12q-12 16 -12 19v39v47q0 27 -2 55.5t-2 56.5v66v45q0 25 2 49v17q0 4 -1 8t-1 8 q0 6 2 8q66 119 117 204t98 161q35 57 71.5 114.5t75.5 124.5q12 16 32 46t38 63q18 29 36.5 56.5t37.5 49.5q-4 -10 -2 -6t8 15.5t13 24.5t11 24l-2 -2q23 35 35 63q10 16 17.5 27.5t7.5 23.5q0 37 -41 37q-20 0 -41 -6h2q-47 -10 -117 -35.5t-129 -48.5h2q-37 -14 -37 -43 q0 -14 12.5 -29.5t20.5 -21.5q6 -4 6 -17q0 -33 -25.5 -92t-71.5 -141t-109.5 -183.5t-137.5 -215.5v2q-12 -16 -20 -29q-23 25 -60 69t-72 85q-23 23 -39 41t-22 28q-20 23 -36.5 44.5t-33.5 41.5q-61 78 -94 120t-50 66.5t-27.5 41t-26.5 41.5h2q-6 10 -18.5 34.5t-27 52 t-25.5 53t-15 40.5q0 8 2 16q2 10 3 19.5t1 19.5q0 23 -6 36t-29 13q-16 0 -31 -10h2l-18 -8q-20 -10 -43 -22.5t-31 -16.5q-39 -12 -57 -23.5t-41 -27.5q-10 -6 -20.5 -14.5t-24.5 -18.5q-16 -10 -16 -31z" />
<glyph unicode="z" horiz-adv-x="1519" d="M57 45q0 -18 16.5 -30.5t51.5 -12.5q10 0 20.5 1t22.5 3q10 2 16 2h17q10 0 23.5 -1t27.5 -3t27.5 -3t29.5 -1q39 2 80 3t86 1q33 0 64.5 -1t66.5 -1q61 0 126 -1t132 -1q125 4 252 6t223 2h56t45 -2q10 0 23.5 -1t25.5 -3h-2q10 -2 18 -2h21q18 0 30.5 7t14.5 28l57 74 q29 31 47.5 53t22.5 45l-2 -2q6 16 8 29.5t2 23.5q0 25 -10 40t-33 15q-25 0 -59 -32q-12 -12 -35 -19.5t-45 -17.5h2q-4 -2 -17 -6q-25 0 -61 -11h2q-18 -4 -38.5 -8t-31.5 -6q-74 -6 -157.5 -10t-167.5 -6t-167 -3t-155 -1q-59 0 -107 1t-83 1h-56q-23 0 -22 10v2 q10 16 16 30.5t15 30.5q14 33 26 54v-3q29 41 55.5 78t51.5 76q41 55 78.5 108.5t78.5 106.5q63 78 124 157t122 156q70 92 140.5 183.5t148.5 187.5q23 31 22 53q0 29 -22.5 36t-42.5 7l1 1t1 4q-57 2 -121 2h-115q-123 0 -226 -2.5t-191 -6.5q-68 -2 -126.5 -4t-105.5 -2 h-37q-18 0 -34 2h-11q-14 2 -22 3t-21 1q-27 0 -41 -9t-26 -32l2 2q-4 -6 -8 -15t-11 -19q-4 -10 -13 -25.5t-26 -44.5q-16 -27 -16 -49q0 -45 49 -45q10 0 14.5 1t10.5 3q41 12 80 20.5t55 8.5q23 0 45.5 1t44.5 3h-2q102 4 217 7t240 3h78h6q-2 -4 -8.5 -18.5t-14.5 -28.5 l2 2q-66 -92 -166 -224.5t-227 -287.5q-16 -20 -37.5 -52t-50.5 -73q-61 -90 -152.5 -217t-218.5 -271l4 3q-18 -16 -30.5 -32t-12.5 -32z" />
<glyph unicode="{" horiz-adv-x="452" d="M35 909q-14 8 0 17v16h28q4 0 5.5 -1t3.5 -1h12q4 0 8 1t10 1q25 20 25 90q0 39 -8 80l-31 215q-2 8 -2 31q0 27 5 64.5t16.5 76.5t29 76t39.5 65q45 55 86 90t94 72q8 0 32 -16.5t24 -32.5q0 -8 -1 -10t-10 -10q-35 -31 -51 -67t-33 -77v2q-23 -80 -22 -188q0 -29 6 -53 l33 -213q4 -31 7 -55.5t3 -45.5q0 -63 -22 -102v2q-10 -27 -22.5 -42t-29.5 -26q18 -18 30.5 -40.5t23.5 -53.5q6 -23 8 -44t2 -44v-37q0 -18 -2 -37v2l-17 -237q0 -10 -1 -20.5t-1 -18.5q0 -66 12.5 -105.5t22.5 -64.5v2q16 -35 30.5 -51.5t31.5 -28.5q4 -4 7 -5t13 -11 q2 -4 -18.5 -20.5t-46 -34t-48 -32t-24.5 -14.5q-20 0 -44 14.5t-46.5 38t-44 55.5t-35.5 66v-2q-10 18 -16.5 47t-9.5 60t-4 62.5t-1 56.5v32q0 6 1 12.5t3 14.5v-2l27 266q2 10 2 19v20q0 39 -9.5 62.5t-19.5 35.5q-14 14 -59 15z" />
<glyph unicode="|" horiz-adv-x="395" d="M133 0v1786h160v-1786h-160z" />
<glyph unicode="}" horiz-adv-x="452" d="M39 1683q-6 2 13.5 20.5t44 38t47 36t26.5 16.5q23 0 46.5 -15.5t47 -41t43 -58t33.5 -67.5q16 -39 22.5 -103.5t6.5 -117.5v-35v-15q0 -4 -2 -14l2 4l-29 -270q-2 -8 -2 -19q0 -49 14.5 -79.5t20.5 -34.5l12 -6l-6 4l14 -4h29l8 -70q-25 0 -31 -1t-10 -3q-8 -4 -20 -8 q-16 -10 -24.5 -37t-8.5 -62q0 -20 3 -42.5t7 -51.5l29 -217v-20q0 -29 -5 -65t-15.5 -74t-27 -76.5t-38.5 -69.5q-43 -55 -79 -85t-81 -58h2q-4 -4 -10 -7.5t-10 -7.5q-6 0 -15.5 5t-19.5 12.5t-17.5 16.5t-7.5 15q0 10 6 17q39 25 55.5 61.5t32.5 77.5q10 35 16.5 87 t6.5 99q0 16 -1 30.5t-3 25.5v-2l-35 215q-4 33 -7 58.5t-3 47.5q0 31 6 53.5t18 44.5v-2q10 25 20.5 38.5t26.5 23.5q-18 20 -29 42.5t-22 51.5q-6 14 -8 33.5t-2 44.5v61q0 16 4 27l-2 -4l14 237q2 12 2 23v20q0 66 -11 106t-21 60q-18 35 -32.5 50.5t-29.5 27.5 q-4 2 -14 12z" />
<glyph unicode="~" horiz-adv-x="1153" d="M80 555q39 31 83 60.5t84 53t70.5 37t42.5 13.5q14 0 79 -13.5t134 -29.5q16 -4 35 -8t35 -9h-2q39 -8 82 -20t84 -23q47 -14 85 -23t50 -9q14 0 52 29.5t67 58.5l61 -35q-45 -51 -93 -91t-93 -67.5t-84 -43t-66 -15.5q-61 0 -106 8t-100 23q-10 0 -37 8l2 -2 q-55 10 -119 34.5t-113 47.5q-27 10 -45 18t-22 8q-16 0 -31 -20q-4 -4 -2 -5t0 -5.5t-12.5 -14.5t-40.5 -31zM344 631q39 -10 100.5 -31.5t135.5 -52.5q27 -12 60.5 -20.5t64 -13.5t54 -8t29.5 -3q4 0 12.5 1t18.5 3q-12 4 -24.5 8t-26.5 8v-2q-59 16 -138 41t-145 45 q-25 6 -39 10.5t-24 7.5t-21.5 6t-29.5 9q-16 -4 -27 -8z" />
<glyph unicode="&#xad;" horiz-adv-x="1050" d="M119 530l22 19q20 20 66.5 61t95.5 70q6 4 15.5 6t19.5 2q6 0 11 -2t13 -4q2 -2 19 -2q25 -4 77 -8t114.5 -7t131 -4.5t127.5 -1.5q35 0 62 3.5t49 7.5q6 2 12 2q8 0 13 2q12 2 14 2q4 0 8 2q12 2 19 2h24q16 0 19.5 -2t3.5 -19q0 -8 -14.5 -28.5t-31 -42t-31.5 -37.5 l-15 -16q-4 2 -23 2h-166q-84 0 -163 2t-144 6q-47 0 -86 1t-68 1q-14 0 -23 -1t-14 -1q-2 0 -24.5 -11.5t-32.5 -17.5l2 2q-16 -10 -31.5 -16t-31.5 -6q-39 0 -39 34zM270 545h2h-2z" />
<glyph unicode="&#xc6;" horiz-adv-x="1959" d="M-66 80q0 12 4.5 23.5t10.5 23.5q4 6 7 9t13 18q31 41 102.5 133t163 214t193.5 259t193.5 267t164 240.5t105.5 178.5q29 -8 91 -13.5t144 -5.5q90 0 195.5 2.5t204.5 6.5q82 4 158.5 5t125.5 1q10 -14 15.5 -29.5t5.5 -28.5q0 -35 -25.5 -74.5t-54.5 -74.5 q-33 -41 -45 -64q-4 -4 -4 -6q-29 -27 -34 -25.5t-5 31.5q-2 -2 -4 -2q-37 45 -118 61.5t-179 16.5q-51 0 -104.5 -3t-100.5 -7q-2 -29 -2 -59v-58q0 -41 1 -78.5t3 -74.5q2 -35 3 -67t1 -62q10 -4 25 -4h33q41 0 95 4t114 8q66 4 135 7t125 3h39q18 0 47 -4 q0 -37 -22.5 -76t-51.5 -78q-23 -31 -41.5 -60.5t-28.5 -51.5q-10 -10 -15 -11.5t-9 -1.5q-20 0 -23 7h-6q-12 39 -64.5 53t-119.5 14q-41 0 -82 -2t-78 -6q-20 -2 -36.5 -3t-33.5 -1q-2 -33 -3 -77t-2 -92t-1 -97v-93v-47q0 -20 2 -36q23 -2 66 -6.5t98 -7.5t120.5 -5 t131.5 -2q63 0 129 5t125 17.5t111.5 34t91.5 56.5q0 -6 -4.5 -21.5t-9.5 -33t-10 -33t-7 -21.5q-55 -23 -102.5 -61.5t-85.5 -73.5q-29 -23 -53.5 -43.5t-47.5 -30.5q-10 -2 -23.5 -3t-35.5 -1q-63 0 -169 7t-216 16q-78 6 -150.5 10t-132.5 8q-41 -8 -61.5 -9t-32.5 -1 h-19q-10 0 -40 -8q-12 12 -14.5 17t-2.5 13q0 29 74 131l-4 -6q8 25 13 62t8 78t4 85t1 80q0 27 -1 48.5t-1 37.5v7q-37 8 -86 11t-102 3q-47 0 -93 -2t-86 -6t-71 -9.5t-45 -9.5q-10 -16 -21.5 -29.5t-23.5 -29.5q-39 -53 -78 -108.5t-55 -90.5q-14 -29 -14 -55 q0 -23 11 -38t29.5 -25.5t40 -16.5t41.5 -10q4 -2 24.5 -7t25.5 -5q0 -6 -17 -7q6 -2 11.5 -18t3.5 -16l14 6l-6 -6t-11 -9q-31 -12 -77.5 -27.5t-94 -28.5t-86.5 -21.5t-55 -8.5q-74 0 -115 32t-41 73zM565 711q16 -2 41 -3t53 -1q33 0 70 1t71 3t61.5 5t45.5 5 q2 25 3 67.5t1 94.5v127v63v45t-1 38t-1 40q-100 -139 -162.5 -226t-99.5 -139.5t-54.5 -78t-27.5 -41.5z" />
<glyph unicode="&#x2000;" horiz-adv-x="923" />
<glyph unicode="&#x2001;" horiz-adv-x="1847" />
<glyph unicode="&#x2002;" horiz-adv-x="923" />
<glyph unicode="&#x2003;" horiz-adv-x="1847" />
<glyph unicode="&#x2004;" horiz-adv-x="615" />
<glyph unicode="&#x2005;" horiz-adv-x="461" />
<glyph unicode="&#x2006;" horiz-adv-x="307" />
<glyph unicode="&#x2007;" horiz-adv-x="307" />
<glyph unicode="&#x2008;" horiz-adv-x="230" />
<glyph unicode="&#x2009;" horiz-adv-x="369" />
<glyph unicode="&#x200a;" horiz-adv-x="102" />
<glyph unicode="&#x2010;" horiz-adv-x="1050" d="M119 530l22 19q20 20 66.5 61t95.5 70q6 4 15.5 6t19.5 2q6 0 11 -2t13 -4q2 -2 19 -2q25 -4 77 -8t114.5 -7t131 -4.5t127.5 -1.5q35 0 62 3.5t49 7.5q6 2 12 2q8 0 13 2q12 2 14 2q4 0 8 2q12 2 19 2h24q16 0 19.5 -2t3.5 -19q0 -8 -14.5 -28.5t-31 -42t-31.5 -37.5 l-15 -16q-4 2 -23 2h-166q-84 0 -163 2t-144 6q-47 0 -86 1t-68 1q-14 0 -23 -1t-14 -1q-2 0 -24.5 -11.5t-32.5 -17.5l2 2q-16 -10 -31.5 -16t-31.5 -6q-39 0 -39 34zM270 545h2h-2z" />
<glyph unicode="&#x2011;" horiz-adv-x="1050" d="M119 530l22 19q20 20 66.5 61t95.5 70q6 4 15.5 6t19.5 2q6 0 11 -2t13 -4q2 -2 19 -2q25 -4 77 -8t114.5 -7t131 -4.5t127.5 -1.5q35 0 62 3.5t49 7.5q6 2 12 2q8 0 13 2q12 2 14 2q4 0 8 2q12 2 19 2h24q16 0 19.5 -2t3.5 -19q0 -8 -14.5 -28.5t-31 -42t-31.5 -37.5 l-15 -16q-4 2 -23 2h-166q-84 0 -163 2t-144 6q-47 0 -86 1t-68 1q-14 0 -23 -1t-14 -1q-2 0 -24.5 -11.5t-32.5 -17.5l2 2q-16 -10 -31.5 -16t-31.5 -6q-39 0 -39 34zM270 545h2h-2z" />
<glyph unicode="&#x2012;" horiz-adv-x="1050" d="M119 530l22 19q20 20 66.5 61t95.5 70q6 4 15.5 6t19.5 2q6 0 11 -2t13 -4q2 -2 19 -2q25 -4 77 -8t114.5 -7t131 -4.5t127.5 -1.5q35 0 62 3.5t49 7.5q6 2 12 2q8 0 13 2q12 2 14 2q4 0 8 2q12 2 19 2h24q16 0 19.5 -2t3.5 -19q0 -8 -14.5 -28.5t-31 -42t-31.5 -37.5 l-15 -16q-4 2 -23 2h-166q-84 0 -163 2t-144 6q-47 0 -86 1t-68 1q-14 0 -23 -1t-14 -1q-2 0 -24.5 -11.5t-32.5 -17.5l2 2q-16 -10 -31.5 -16t-31.5 -6q-39 0 -39 34zM270 545h2h-2z" />
<glyph unicode="&#x2013;" horiz-adv-x="1138" d="M119 530l24 19q22 20 73 61t104 70q7 4 17.5 6t21.5 2q6 0 11.5 -2t14.5 -4q2 -2 21 -2q27 -4 84 -8t125.5 -7t143 -4.5t139.5 -1.5q38 0 67.5 3.5t53.5 7.5q7 2 14 2q8 0 14 2q13 2 15 2q4 0 9 2q13 2 21 2h26q17 0 21 -2t4 -19q0 -8 -16 -28.5t-34 -42t-34 -37.5 l-17 -16q-4 2 -25 2h-181q-92 0 -178.5 2t-157.5 6q-52 0 -94.5 1t-74.5 1q-15 0 -25 -1t-15 -1q-2 0 -27 -11.5t-36 -17.5l3 2q-18 -10 -35 -16t-34 -6q-43 0 -43 34zM284 545h2h-2z" />
<glyph unicode="&#x2014;" horiz-adv-x="2162" d="M119 530l48 19q44 20 145.5 61t209.5 70q13 4 33.5 6t42.5 2q13 0 24 -2t29 -4q4 -2 41 -2q55 -4 169 -8t250.5 -7t286.5 -4.5t279 -1.5q76 0 135.5 3.5t107.5 7.5q13 2 26 2q18 0 28 2q27 2 31 2q9 0 18 2q26 2 41 2h53q35 0 42.5 -2t7.5 -19q0 -8 -31.5 -28.5t-68 -42 t-68.5 -37.5l-33 -16q-9 2 -51 2h-363q-184 0 -356.5 2t-315.5 6q-102 0 -187.5 1t-149.5 1q-30 0 -50 -1t-30 -1q-5 0 -54 -11.5t-71 -17.5l4 2q-35 -10 -69 -16t-69 -6q-85 0 -85 34zM449 545h5h-5z" />
<glyph unicode="&#x202f;" horiz-adv-x="369" />
<glyph unicode="&#x205f;" horiz-adv-x="461" />
<glyph unicode="&#x25fc;" horiz-adv-x="1484" d="M0 0v1485h1485v-1485h-1485z" />
</font>
</defs>
</svg>
